<svg xmlns="http://www.w3.org/2000/svg" viewBox="0 0 343.15 471.57"><defs><style>.cls-1{fill:#010001;}.cls-2{fill:#ff0054;}.cls-3{fill:#ffbd00;}.cls-4{fill:#ff5400;}.cls-5{fill:#390099;}</style></defs><g id="Layer_2" data-name="Layer 2"><g id="Layer_1-2" data-name="Layer 1"><path class="cls-1" d="M337.26,193.82c-5.33-29-16.2-55.34-39.34-75C279.38,103,257.41,94.41,233.81,90.08c-45.5-8.37-91-8.44-136.09,2.7C44.33,106,15,141.23,5.51,194.51c-2.19,12.38-2.88,24.9-4.76,37.3q-.06,7.35-.1,14.68c3.16,9.6,2.88,19.76,4.79,29.57,5.66,29,16,55.49,38.9,75.45,18.57,16.16,40.73,24.82,64.55,29.3,44.69,8.41,89.44,8.46,133.82-1.88,54.13-12.63,85.13-47.39,94.57-101.76,2.07-11.95,3.36-24,5-36.05V229.83C340.64,217.83,339.44,205.73,337.26,193.82Zm-22.63,44.06c-31.28,33.51-66.67,60.71-111.85,72.74a124.79,124.79,0,0,1-32.37,3.95c-25.2-.27-49.42-8.2-72.29-20.79C72,279.43,49.48,260.67,29.36,238.85c-1.72-1.87-3.34-3.22-.73-6,30.45-32.49,64.73-59.2,108.38-71.59,35.12-10,68.49-3.93,100.54,12.09,29.31,14.65,54.24,35,76.34,59C315.44,234,317,235.29,314.63,237.88Z"/><path class="cls-2" d="M342.82,257.47c.65,36.5.72,73-6.51,109-10.28,51.24-40.48,83.88-91.23,96.2a309,309,0,0,1-147,.05c-53.13-12.81-82.87-47.89-92.36-101C.1,330.35-.42,298.65.32,266.88c1.07,19.33,2.51,38.61,6.42,57.65,10.15,49.42,38.73,82.22,87.83,95,50.11,13,100.75,13,151.06.72,49.47-12.06,79.31-43.77,90.22-93.43C340.87,304,342.31,280.77,342.82,257.47Z"/><path class="cls-3" d="M.33,204.12a565.42,565.42,0,0,1,2.16-72.23,216.83,216.83,0,0,1,8.44-43.63C24.61,43.8,55.75,18.55,99.85,7.67,132.64-.42,166-1.08,199.43,1a242.65,242.65,0,0,1,48.11,7.81c49,13.24,78.18,45.05,88.58,94.53,6.93,33,6.93,66.36,7,99.77,0,3.49-.23,7-.35,10.49-.54-22.88-1.93-45.66-6.68-68.15-10.32-48.91-38.86-81.26-87.45-94-50.12-13.1-100.77-13.1-151.08-.84-48.88,11.92-78.88,42.9-90,92.19C3,163.07,1.51,183.56.33,204.12Z"/><path class="cls-4" d="M.33,204.12c1.18-20.56,2.7-41.05,7.26-61.26,11.12-49.29,41.12-80.27,90-92.19,50.31-12.26,101-12.26,151.08.84,48.59,12.69,77.13,45,87.45,94,4.75,22.49,6.14,45.27,6.68,68.15q-.26,8.1-.52,16.22c-1.65-12-2.85-24.1-5-36-5.32-29-16.18-55.34-39.33-75-18.55-15.79-40.51-24.36-64.11-28.7-45.5-8.36-91-8.44-136.08,2.71C44.33,106,15,141.23,5.52,194.51c-2.2,12.38-2.9,24.91-4.77,37.3Z"/><path class="cls-5" d="M342.82,257.47c-.51,23.3-1.95,46.51-7,69.35-10.91,49.66-40.75,81.37-90.22,93.43-50.31,12.27-100.95,12.31-151.06-.72-49.1-12.78-77.68-45.58-87.83-95-3.91-19-5.35-38.32-6.42-57.65L.65,246.5c3.16,9.59,2.88,19.75,4.8,29.57,5.65,29,16,55.48,38.89,75.44,18.58,16.15,40.73,24.81,64.55,29.3,44.69,8.41,89.44,8.46,133.82-1.89,54.13-12.62,85.13-47.38,94.57-101.75,2.07-11.95,3.35-24,5-36.05Z"/><path class="cls-1" d="M219.84,236.26a48.15,48.15,0,0,1-48.39,48.22c-27-.05-48.37-21.72-48.27-49a48.33,48.33,0,0,1,96.66.78Z"/></g></g></svg>