<svg xmlns="http://www.w3.org/2000/svg" viewBox="0 0 743.72 747.45"><defs><style>.cls-1{fill:#2b2d42;}</style></defs><g id="Layer_2" data-name="Layer 2"><g id="Layer_1-2" data-name="Layer 1"><circle class="cls-1" cx="494.9" cy="334.93" r="54.97"/><circle class="cls-1" cx="291.49" cy="483.36" r="54.97"/><circle class="cls-1" cx="243.85" cy="334.93" r="54.97"/><circle class="cls-1" cx="446.34" cy="483.36" r="54.97"/><circle class="cls-1" cx="369.37" cy="244.22" r="54.97"/><circle class="cls-1" cx="368.75" cy="376.5" r="34.52"/><path class="cls-1" d="M94.49,425l4.22-13,66.13-7.88L116,358.86l4.22-13,77.88,25.33-4.83,14.84L150,372l36.83,33.85-3.22,9.89-49.7,5.7L177.2,435.5l-4.83,14.83Z" transform="translate(-94.49 -124.26)"/><path class="cls-1" d="M204.23,307l-56.34-10.35,10.44-13.3,38.44,7.88L180,255.74l10.44-13.29,23.41,52.27L238.4,314l-9.64,12.27Z" transform="translate(-94.49 -124.26)"/><path class="cls-1" d="M244.33,237.77l31.36-23.19L283.42,225l-31.36,23.19Z" transform="translate(-94.49 -124.26)"/><path class="cls-1" d="M304.07,162.17l14.26-6.34,33.25,74.85L337.32,237Z" transform="translate(-94.49 -124.26)"/><path class="cls-1" d="M376.37,134.5l13.54-1.68,35.18,56.55,20.3-63.43,13.54-1.68L469,205.54l-15.48,1.92-5.61-45.16-15,47.72-10.32,1.28-26.24-42.6,5.6,45.16-15.48,1.92Z" transform="translate(-94.49 -124.26)"/><path class="cls-1" d="M523.54,130.15l25.24,6.27c20.81,5.17,34.56,28,29.23,49.46s-28.17,35.19-49,30l-25.24-6.27Zm9.09,71.24c12.62,3.14,26.82-5.52,30.24-19.28s-5.08-28.05-17.7-31.18l-10.09-2.51-12.54,50.46Z" transform="translate(-94.49 -124.26)"/><path class="cls-1" d="M641.17,170.24l28.49,18.2c12.05,7.7,15.21,22.06,8.56,32.47a16.53,16.53,0,0,1-10.6,7.42,21.24,21.24,0,0,1-6,.48,25.15,25.15,0,0,1,3.1,7.22,21.4,21.4,0,0,1-3,16.76c-6.65,10.41-21.91,13.77-35.06,5.37l-29.58-18.89ZM632.91,246c6.14,3.92,13.14,2.37,16.71-3.21s2-12.59-4.11-16.51l-15.34-9.8-12.59,19.72Zm17.8-30.28c4.93,3.15,11.22,1.76,14-2.62s1.41-10.67-3.52-13.82L647,190.15l-10.5,16.43Z" transform="translate(-94.49 -124.26)"/><path class="cls-1" d="M214,662.47l10.7,11.36L197,722.22,247.4,698l6.25,6.63-27.2,48.86,49.95-24.72,10.7,11.37-77.45,37.23-7.58-8.05,26.22-47.06-48.53,23.38-7.58-8Z" transform="translate(-94.49 -124.26)"/><path class="cls-1" d="M327.17,759.58,340,765.94l-9,86.95-14.57-7.22,2.26-17.74-28-13.86L278,826.62l-14.57-7.22Zm-6.77,53.23,4-31.41-22.6,22.17Z" transform="translate(-94.49 -124.26)"/><path class="cls-1" d="M405.11,802.69l-23.73-4L383.86,784l62.86,10.58-2.48,14.74-23.73-4-11.1,66L394,868.71Z" transform="translate(-94.49 -124.26)"/><path class="cls-1" d="M553.88,836.74a38,38,0,0,1-32.22,34.53c-21.22,3.26-42-12-45.53-35.1s11.71-43.88,32.93-47.13c18.51-2.84,34.34,8.54,40.44,23.39l-16.08,2.46c-3.14-6.75-11.17-12.76-22.1-11.08-12.86,2-22.12,14.57-19.75,30s15,24.67,27.82,22.69a21.76,21.76,0,0,0,18.41-17.28Z" transform="translate(-94.49 -124.26)"/><path class="cls-1" d="M574.55,773.29l13.73-7.44,15.48,28.57L634.07,778l-15.48-28.57L632.31,742l39,72-13.72,7.44L641.2,791.13l-30.31,16.43,16.42,30.28-13.73,7.44Z" transform="translate(-94.49 -124.26)"/><path class="cls-1" d="M660.47,718.43l10.69-11.38L720,752.9l26.28-28,10.9,10.24-37,39.35Z" transform="translate(-94.49 -124.26)"/><path class="cls-1" d="M714.83,650.77l7.65-13.61,71.41,40.1-7.64,13.61Z" transform="translate(-94.49 -124.26)"/><path class="cls-1" d="M796.42,604.85c7,1.9,13.28-1.79,15.5-10,2.42-8.91-.81-14.38-5.83-15.74-14.43-3.92-18,38.93-45.46,31.47-12-3.26-19.81-16.83-15.21-33.78,4.26-15.7,17.83-23.48,32.26-19.56l-3.93,14.44c-7-1.91-12.48,1.33-14.53,8.86s1.16,13.12,5.55,14.32c13.67,3.71,17.48-39.07,46.21-31.27,11.29,3.06,19.48,17.55,14.74,35S807.38,624,792.33,619.91Z" transform="translate(-94.49 -124.26)"/><path class="cls-1" d="M771.3,498.58l.78,24.05-14.94.49-2.07-63.71,14.94-.49.78,24.05,66.92-2.17.5,15.6Z" transform="translate(-94.49 -124.26)"/><circle class="cls-1" cx="663.08" cy="206.07" r="15.87"/><circle class="cls-1" cx="35.34" cy="449.6" r="15.87"/></g></g></svg>