<svg xmlns="http://www.w3.org/2000/svg" viewBox="0 0 676.35 677.01"><defs><style>.cls-1{fill:#fff;}</style></defs><g id="Layer_2" data-name="Layer 2"><g id="Layer_1-2" data-name="Layer 1"><path class="cls-1" d="M389.22,118.72c-9.05,47.26-24.46,60.83-72.45,63.78,23.85,10.21,42.81,7.81,59.46-7.54C393.32,159.2,397.21,142.35,389.22,118.72Zm0,0c-9.05,47.26-24.46,60.83-72.45,63.78,23.85,10.21,42.81,7.81,59.46-7.54C393.32,159.2,397.21,142.35,389.22,118.72ZM213.42,428.27c-8.34,40.38-30.19,63.64-78.56,60.64C187.2,506.66,220.29,479.32,213.42,428.27Zm0-211.9c-7.63,47-30.22,70.65-73.44,70.93C191.63,298.58,222.18,271.67,213.41,216.37Zm175.81-97.65c-9.05,47.26-24.46,60.83-72.45,63.78,23.85,10.21,42.81,7.81,59.46-7.54C393.32,159.2,397.21,142.35,389.22,118.72Zm0,0c-9.05,47.26-24.46,60.83-72.45,63.78,23.85,10.21,42.81,7.81,59.46-7.54C393.32,159.2,397.21,142.35,389.22,118.72ZM213.41,216.37c-7.63,47-30.22,70.65-73.44,70.93C191.63,298.58,222.18,271.67,213.41,216.37Zm0,211.9c-8.34,40.38-30.19,63.64-78.56,60.64C187.2,506.66,220.29,479.32,213.42,428.27Zm0,0c-8.34,40.38-30.19,63.64-78.56,60.64C187.2,506.66,220.29,479.32,213.42,428.27Zm0-211.9c-7.63,47-30.22,70.65-73.44,70.93C191.63,298.58,222.18,271.67,213.41,216.37ZM388.77,524.53c-3.12,45.07-26.21,67.24-73.48,70C370.33,607.07,402.69,575,388.77,524.53Zm.45-405.81c-9.05,47.26-24.46,60.83-72.45,63.78,23.85,10.21,42.81,7.81,59.46-7.54C393.32,159.2,397.21,142.35,389.22,118.72ZM564.92,413c.28,54.2-24.17,76.85-69.78,78.41C549.18,504,579.51,473.56,564.92,413Zm0,0c.28,54.2-24.17,76.85-69.78,78.41C549.18,504,579.51,473.56,564.92,413ZM389.22,118.72c-9.05,47.26-24.46,60.83-72.45,63.78,23.85,10.21,42.81,7.81,59.46-7.54C393.32,159.2,397.21,142.35,389.22,118.72Zm-.45,405.81c-3.12,45.07-26.21,67.24-73.48,70C370.33,607.07,402.69,575,388.77,524.53ZM213.41,216.37c-7.63,47-30.22,70.65-73.44,70.93C191.63,298.58,222.18,271.67,213.41,216.37Zm0,211.9c-8.34,40.38-30.19,63.64-78.56,60.64C187.2,506.66,220.29,479.32,213.42,428.27ZM337,0A337.7,337.7,0,0,0,0,338.06C-.3,528,150,677.35,340.91,677c186.33-.33,335.94-151.41,335.44-338.74C675.86,149.82,524.67-.88,337,0ZM161.09,512.86c-39.44,0-71.85-32.21-71.91-71.54-.07-39,32.67-72.3,71.31-72.44,38.4-.15,72.07,33.28,72.3,71.76S199.48,512.82,161.09,512.86ZM161.4,308c-39.56.26-71.94-31.49-72.24-70.83-.29-39,32.18-72,71.14-72.38,38.64-.37,72.11,32.49,72.51,71.2S200.51,307.75,161.4,308ZM337.07,615.27c-39.8-.47-70.37-32.18-69.9-72.5.46-39.9,32.12-70.56,72.3-70,39.81.53,70.32,32.13,69.92,72.43C409,585,377.27,615.75,337.07,615.27Zm.28-312.39c18.78-.51,37,17.47,36.92,36.33-.13,18.27-16.31,34.35-37.21,34.89-19.19-.91-31.77-12.41-34.44-33C300.22,322.54,318.6,303.38,337.35,302.88Zm-.49-97.4c-39.47-.93-70.33-33.39-69.7-73.29.63-39.28,34-71.89,72.51-70.86,39.15,1.05,70.29,34,69.73,73.66C408.83,174.4,375.89,206.41,336.86,205.48Zm180-40.64c38.71.63,71.17,34.21,70.55,73-.63,39.15-33.41,70.67-73,70.19-38.79-.46-71.53-34.09-70.74-72.65C444.5,196.58,478.09,164.21,516.89,164.84Zm-2.4,347.92c-38.77-.78-71.56-34.64-70.72-73,.86-38.61,35.07-71.78,73.13-70.9,38.89.91,71,34.4,70.42,73.36C586.69,481.55,553.66,513.54,514.49,512.76Zm51.23-295.52c.81,47.36-27,65.9-76.55,70.75C551.61,297.57,578.09,270.28,565.72,217.24ZM495.14,491.37c54,12.65,84.37-17.81,69.78-78.41C565.2,467.16,540.75,489.81,495.14,491.37ZM316.77,182.5c23.85,10.21,42.81,7.81,59.46-7.54,17.09-15.76,21-32.61,13-56.24C380.17,166,364.76,179.55,316.77,182.5Zm-1.48,412c55,12.54,87.4-19.57,73.48-70C385.65,569.6,362.56,591.77,315.29,594.53ZM140,287.3c51.66,11.28,82.21-15.63,73.44-70.93C205.78,263.33,183.19,287,140,287.3Zm-5.11,201.61c52.34,17.75,85.43-9.59,78.56-60.64C205.08,468.65,183.23,491.91,134.86,488.91Zm78.56-60.64c-8.34,40.38-30.19,63.64-78.56,60.64C187.2,506.66,220.29,479.32,213.42,428.27Zm0-211.9c-7.63,47-30.22,70.65-73.44,70.93C191.63,298.58,222.18,271.67,213.41,216.37ZM388.77,524.53c-3.12,45.07-26.21,67.24-73.48,70C370.33,607.07,402.69,575,388.77,524.53Zm.45-405.81c-9.05,47.26-24.46,60.83-72.45,63.78,23.85,10.21,42.81,7.81,59.46-7.54C393.32,159.2,397.21,142.35,389.22,118.72Zm0,0c-9.05,47.26-24.46,60.83-72.45,63.78,23.85,10.21,42.81,7.81,59.46-7.54C393.32,159.2,397.21,142.35,389.22,118.72Zm-.45,405.81c-3.12,45.07-26.21,67.24-73.48,70C370.33,607.07,402.69,575,388.77,524.53ZM213.41,216.37c-7.63,47-30.22,70.65-73.44,70.93C191.63,298.58,222.18,271.67,213.41,216.37Zm0,211.9c-8.34,40.38-30.19,63.64-78.56,60.64C187.2,506.66,220.29,479.32,213.42,428.27Zm0-211.9c-7.63,47-30.22,70.65-73.44,70.93C191.63,298.58,222.18,271.67,213.41,216.37Zm175.81-97.65c-9.05,47.26-24.46,60.83-72.45,63.78,23.85,10.21,42.81,7.81,59.46-7.54C393.32,159.2,397.21,142.35,389.22,118.72Zm0,0c-9.05,47.26-24.46,60.83-72.45,63.78,23.85,10.21,42.81,7.81,59.46-7.54C393.32,159.2,397.21,142.35,389.22,118.72ZM213.41,216.37c-7.63,47-30.22,70.65-73.44,70.93C191.63,298.58,222.18,271.67,213.41,216.37Z"/></g></g></svg>