<svg xmlns="http://www.w3.org/2000/svg" viewBox="0 0 692.76 631.54"><defs><style>.cls-1{fill:#fff;}</style></defs><g id="Layer_2" data-name="Layer 2"><g id="Layer_1-2" data-name="Layer 1"><path class="cls-1" d="M344.05,321.35c-68-.5-137.26-7.43-204.85-26.94-28.7-8.29-56.52-18.84-82.34-34.11-15.28-9-29.44-19.51-40.75-33.42C5.45,213.77-.55,199.12,0,181.85c.49-14.15.5-28.34,0-42.49-.62-17.66,5.71-32.53,16.68-45.82C29,78.65,44.41,67.65,61.06,58.28,95.33,39,132.37,27.22,170.48,18.57,243,2.13,316.39-2.55,390.47,1.24,446.2,4.09,501.16,11.77,554.82,27.52,583,35.8,610.3,46.31,635.63,61.4c15.41,9.18,29.69,19.77,41,33.86,10.46,13,16.56,27.45,16,44.56q-.72,21,0,42c.61,17.47-5.49,32.27-16.38,45.42-15.65,18.88-35.91,31.59-57.55,42.3-37.89,18.75-78.24,29.88-119.55,37.87C448.62,317.18,397.53,321.1,344.05,321.35Zm155.24-214c6.57-.83,18.68-1.91,30.62-4,11.18-2,22-5.53,31.12-12.71,10.18-8,10.28-17.89-.14-25.65a55.53,55.53,0,0,0-15.28-8.23c-34.74-11.51-69.67-11.6-104.41-.07a55.14,55.14,0,0,0-16.42,9.18c-8.85,7-9,16.1-.26,23.22a63.69,63.69,0,0,0,16.31,9.37C457.75,105.31,475.67,106.79,499.29,107.33ZM194.45,163.48c-6.39.71-17.38,1.42-28.17,3.26-12.67,2.16-25.08,5.66-35.32,14-9.2,7.54-9.49,17.28,0,24.33a68.65,68.65,0,0,0,19.79,10.21c29.41,9.29,59.27,9.44,89.21,2.45,9.95-2.33,19.54-5.67,27.56-12.3,9.08-7.51,9.4-16.62.3-24a61.65,61.65,0,0,0-15.45-8.9C235.33,165.63,217.26,164,194.45,163.48Zm206.7,81c11.39-1.33,22.85-2.2,34.13-4.11,12.36-2.1,24.37-5.72,34.28-14,8.83-7.35,9.2-16.58.23-23.65a59.79,59.79,0,0,0-18.2-10,161.93,161.93,0,0,0-101.1-.08,60.52,60.52,0,0,0-18.61,10.27c-8.28,6.56-8.39,15.41-.29,22.13a65.46,65.46,0,0,0,18,10.36C366.07,241.8,383.46,243.59,401.15,244.48ZM138.32,84.73c-6.22.78-18.34,1.82-30.26,3.94-11.34,2-22.35,5.57-31.5,13-9.73,8-9.88,17.55.2,24.94a64.4,64.4,0,0,0,18.46,9.58c32.14,10.06,64.56,10,96.91.82,8.35-2.38,16.33-5.86,22.6-12.22,6.75-6.85,7.09-14.69-.2-20.91a65.35,65.35,0,0,0-17.39-10.39C180.25,86.64,162.3,85.18,138.32,84.73ZM292,86.83c11.87-1.46,23.83-2.43,35.59-4.5s23.33-5.77,32.78-13.75c8.59-7.26,9.07-16.37.29-23.3a63.88,63.88,0,0,0-19.54-10.6c-30.21-9.77-60.89-9.77-91.63-2.4-9.45,2.27-18.5,5.65-26.1,12-9.23,7.67-9.36,16.85,0,24.35a58.29,58.29,0,0,0,13.73,8C254.57,83.92,273.09,85.71,292,86.83Zm256.41,99.94c11.88-1.44,23.84-2.38,35.59-4.48,12-2.13,23.71-5.72,33.15-14,8.49-7.49,8.69-16.41-.27-23.29a65.21,65.21,0,0,0-19.18-10.28c-30.21-9.76-61-10.16-91.56-2.23a85.08,85.08,0,0,0-25.63,11.62c-10.39,7-10.16,17.09-.26,24.75a64.34,64.34,0,0,0,15.63,8.61C512.64,184.05,530.35,185.75,548.36,186.77Zm-202-34.1c11.55,0,22.93-1.17,33.58-6,5-2.27,10.55-4.72,10.47-11.33-.08-6.31-5.34-9-10.28-10.94-22.3-8.65-44.8-8.66-67.16-.28-5.1,1.91-10.65,4.62-10.69,11.17,0,6.82,5.79,9.25,10.94,11.53C323.75,151.46,335,152.69,346.36,152.67Z"/><path class="cls-1" d="M692.6,449.28v11.59c0,10.16-.41,20.35.08,30.49,1,19.4-6.51,35.35-19.08,49.41-12.15,13.58-26.84,23.88-42.64,32.68-33.59,18.7-69.78,30.41-107,39C453.5,628.7,382.08,633.65,310,630.76c-56.93-2.28-113.1-9.68-168-25.24-29.87-8.46-58.81-19.29-85.62-35.2-15.57-9.23-29.91-20-41.23-34.36C5.11,523.25-.47,509.1.05,492.59.49,478.3.14,464,.14,449.66c.65,0,1.09-.07,1.23.08,22.1,26.15,50.91,42.54,81.78,55.76,38.93,16.66,79.72,26.85,121.33,34a841.3,841.3,0,0,0,178.25,10.88c71.53-3.06,141.87-13.15,209.48-37.93,28.42-10.42,55.52-23.51,79-43C678.6,463.35,685.19,456.32,692.6,449.28Z"/><path class="cls-1" d="M.14,293c35.28,39.82,81.12,58.61,129.08,73.34,44.07,13.54,89.36,21,135.21,25.29a865,865,0,0,0,141.78,1.78c68.39-4.84,135.52-16,199.46-42,25.26-10.27,49.11-23.08,69.79-41.17,5.77-5.05,11.39-10.26,16.85-15.18a10.29,10.29,0,0,1,.27,2.19c0,14.83.1,29.66,0,44.48-.12,16-7.05,29.26-17.08,41.1-15.72,18.55-35.9,31.08-57.41,41.66-36.71,18-75.72,29-115.67,36.89-69.72,13.73-140.13,17.08-210.9,12.78-61-3.71-121.09-13.27-179-33.77-26-9.2-50.91-20.61-73.21-37.11-10.77-8-20.47-17.05-28-28.27S-.19,352,.07,338.46C.36,323.68.14,308.89.14,293Z"/></g></g></svg>