<svg xmlns="http://www.w3.org/2000/svg" viewBox="0 0 1153.33 471.57"><defs><style>.cls-1{fill:#ff0054;}.cls-2{fill:#ffbd00;}.cls-3{fill:#ff5400;}.cls-4{fill:#390099;}</style></defs><g id="Layer_2" data-name="Layer 2"><g id="Layer_1-2" data-name="Layer 1"><path d="M775,154.15c-.72,0-1.33.11-1.94.11-9.47,0-19,0-28.42,0-1.69,0-2.27-.42-2.27-2.2q.08-58.5,0-117c0-1.7.45-2.27,2.22-2.26q17.45.1,34.89,0a3,3,0,0,1,3,1.71c9.65,16,19.53,31.79,28.9,47.92,2,3.52,2.28,8.07,3.38,12.15.16.61.44,1.19.66,1.78a8.39,8.39,0,0,0,.91-1.79c1.14-5,2.25-10,5-14.48C830.7,65,839.87,49.82,849.05,34.62a3.19,3.19,0,0,1,3.14-1.78c11.56.06,23.12.08,34.68,0,1.91,0,2.31.62,2.31,2.39q-.07,58.41,0,116.8c0,1.66-.36,2.3-2.17,2.28q-14.31-.12-28.62,0c-1.74,0-2.24-.5-2.23-2.23.06-15.39,0-30.79.08-46.18,0-4.3.56-8.61.78-12.92a6.32,6.32,0,0,0-.56-2,5.87,5.87,0,0,0-1,1.59c-1.92,7.66-6.62,13.9-10.56,20.51-5.32,8.91-10.78,17.73-16.1,26.63a3.34,3.34,0,0,1-3.3,1.9c-6.55-.1-13.09-.08-19.64,0a3,3,0,0,1-3-1.67c-7.66-13.34-15.44-26.61-23.08-40-1.41-2.46-2.34-5.19-3.54-7.78a8.88,8.88,0,0,0-1.11-1.51,6.26,6.26,0,0,0-.51,1.79q.25,30.39.57,60.78C775.17,153.48,775.1,153.69,775,154.15Z"/><path d="M1146.36,102.69c-2.24-5.5-6.39-9.23-12.7-9.87a7.33,7.33,0,0,1-1.81-.85,7.33,7.33,0,0,1,1.34-.67c5.82-1,9.39-4.8,12.18-9.6,3.19-5.48,3.68-11.44,3.17-17.59-1.07-13-7-22.55-19.33-27.59-7.28-3-15-3.64-22.73-3.65h-76.65c-2.7,0-2.71,0-2.71,2.75V154.26h2.5c25.83,0,51.65.08,77.48-.07a82,82,0,0,0,15.32-1.54c8.55-1.7,16.24-5.45,21.23-12.91C1151.51,128,1151.53,115.39,1146.36,102.69Zm-37.28,16.59a20.33,20.33,0,0,1-2.71.12H1062.1c-.68,0-1.35-.05-2.17-.09V107.05c.63,0,1.17-.12,1.71-.12q22.33,0,44.68,0a13.62,13.62,0,0,1,3.71.46,6,6,0,0,1,4.35,6.56A5.81,5.81,0,0,1,1109.08,119.28Zm1.21-40.43a11.37,11.37,0,0,1-3.49.49q-22.44,0-44.89,0c-.61,0-1.22-.08-2-.12V67.71c.79,0,1.53-.13,2.26-.13q21.93,0,43.85,0a18.08,18.08,0,0,1,3.53.26c3,.57,4.65,2.47,4.8,5.23S1113.22,77.91,1110.29,78.85Z"/><path d="M1020.07,76.9a87.42,87.42,0,0,0-2-17.59c-2.79-12.59-10.16-21.46-23-24.63A64.55,64.55,0,0,0,980.15,33c-26.54-.16-53.07-.05-79.61-.13-2.12,0-2.68.54-2.67,2.67.08,19.36,0,38.72,0,58.08s0,38.72,0,58.09c0,2.13.56,2.66,2.67,2.65,26.61-.07,53.21,0,79.82-.07a70.05,70.05,0,0,0,9.16-.54c11.48-1.54,20.54-6.74,25.73-17.52a44.23,44.23,0,0,0,4.44-18.14C1020,104.33,1020.24,90.61,1020.07,76.9ZM986.3,109.6c-.17,7.91-1.84,9.28-9.66,9.28H931.31V68.43c.68,0,1.34-.13,2-.13h44.9a19.51,19.51,0,0,1,2.29.11c2.45.27,4.21,1.48,4.83,3.93a24.47,24.47,0,0,1,1,5.53C986.39,88.44,986.53,99,986.3,109.6Z"/><path d="M733.7,93.7v57.86c0,2.7,0,2.7-2.73,2.7-9.88,0-19.77,0-29.66,0-1.76,0-2.21-.55-2.21-2.26q.07-58.48,0-117c0-1.74.52-2.25,2.25-2.24q15,.1,30.07,0c1.9,0,2.32.61,2.32,2.39C733.68,54.71,733.7,74.21,733.7,93.7Z"/><path d="M467.48,187.58c.18-3.14.35-6.27.53-9.41H497.6q.27,4.82.53,9.62c-4.59-.6-9.19-1.12-13.79-1.59A43.74,43.74,0,0,0,467.48,187.58Z"/><path d="M441.43,186.76a22.41,22.41,0,0,1,.79-8.53h11.66q.3,8.07.59,16.13c-2.16,1.73-4.07,3.78-6.33,5.91C444,196.87,442,192.15,441.43,186.76Z"/><path d="M543.24,211.7q-6.54,106.6-13.07,213.09H490.49l-7.24-121.57-.93-.07c-1.09,6.45-.48,13.08-1.11,19.58-.65,6.76-.92,13.55-1.33,20.33s-.8,13.77-1.21,20.65-.78,13.57-1.19,20.35-.85,13.56-1.26,20.34-.82,13.52-1.23,20.45H435.35q-7.47-123.12-15-246.62h14.05a36.08,36.08,0,0,0,.21,19.41c.8,2.61,12.9,22.55,13.61,21.69,2.81-3.41,4.66-6.5,6.78-9.17q2.16,58.77,4.3,117.56l.28,0q3.51-62.7,7-125.51a57.38,57.38,0,0,1,22.46-2.14,94.42,94.42,0,0,1,9.77,1.35q3.51,63.27,7,126.4l.34.1a32.44,32.44,0,0,0,.42-3.23c.86-29.26,1.58-58.53,2.56-87.79.37-11,.87-21.93,1.38-32.89,4.22,1,8.44,2.14,12.66,3.14C529.72,208.69,536.43,210.31,543.24,211.7Z"/><path d="M545.31,178c0,.73-.09,1.46-.13,2.19-.08,1.24-.16,2.48-.23,3.72q-.39,6.19-.76,12.37c-7.7-1.52-15.37-3.22-23.08-4.73-3.27-.64-6.56-1.24-9.86-1.78.13-2.84.25-5.67.36-8.51.1-2.56.88-3.37,3.51-3.32,4.62.07,9.24.09,13.92.09l10.14,0h6.13Z"/><path d="M795.63,178.07h33.5V285.73c3.86,0,7.32.06,10.77-.07.49,0,1.2-.89,1.37-1.49a10,10,0,0,0,.08-2.68V178.19h33.86v246.7H841.47V317.83H829.3v107H795.63Z"/><path d="M993.84,324.86h32.81v3.59c0,17.88,0,35.77,0,53.65a16.42,16.42,0,0,0,1,5.82,5.85,5.85,0,0,0,7.1,3.55c3.17-.7,3.5-3.06,3.49-5.75,0-17.48-.29-35,.1-52.45.2-8.9-4.1-14.15-11.38-18-5.28-2.78-10.86-5.23-15.59-8.78-11.14-8.36-16.87-19.93-17-33.82-.26-21.48-.2-43,0-64.45.09-9.14,2.42-17.81,9.75-23.94a35.34,35.34,0,0,1,11.62-6.5,55.74,55.74,0,0,1,32.21-.5c14.34,3.93,21.86,14,24.12,28.24a68.94,68.94,0,0,1,.75,10.45c.07,19.18,0,38.37,0,57.55,0,1-.09,1.94-.15,3.09h-32.5v-3.71q0-26.24,0-52.46a23.9,23.9,0,0,0-.48-5.35c-.74-3.2-3.21-4.73-6.53-4.32-3,.36-4.08,1.84-4.08,5.53,0,17.38.3,34.78-.13,52.15-.22,9,4.18,14,11.42,17.91,5.42,2.94,10.92,5.95,15.72,9.77,11,8.74,17,20.25,17,34.5.06,20.18.33,40.37-.1,60.54q-.69,32.52-33,35.38a65.81,65.81,0,0,1-20.48-1.32c-14.34-3.36-21.77-13.68-24.41-27.66a76.7,76.7,0,0,1-1.33-13.69c-.15-18.88-.07-37.77-.07-56.65C993.74,326.55,993.8,325.87,993.84,324.86Z"/><path d="M788.57,289.8H756.4c0-1.27,0-2.42,0-3.56.07-19.89.19-39.77.18-59.66a74.12,74.12,0,0,0-.83-11.62c-.54-3.47-2.13-4.32-5.72-4.3-3,0-4.35,1.65-4.72,4.36a43.13,43.13,0,0,0-.51,5.66q0,80.94,0,161.88a38.18,38.18,0,0,0,.39,4.77c.35,2.84,1.77,4.57,4.86,4.62,3.53.07,5.2-.87,5.75-4.29a71.23,71.23,0,0,0,.8-11c.07-20.49,0-41,0-61.46v-3.72h31.88c.08.92.22,1.78.22,2.64,0,23.59.16,47.17-.16,70.75a78,78,0,0,1-2.63,18.91c-3.13,11.8-11.05,19.23-23,21.94a57.56,57.56,0,0,1-25,.17c-13.81-3-21.36-12.24-24.22-25.54A77.33,77.33,0,0,1,712,384.28q-.18-82.87-.05-165.77c0-7.63.86-15.15,3.61-22.37,3.88-10.19,11-16.76,21.63-19.29a55.44,55.44,0,0,1,26.15.1c13,3.14,20.54,11.82,23.4,24.58A73.66,73.66,0,0,1,788.59,217c.22,23.48.13,47,.15,70.44C788.74,288.09,788.64,288.78,788.57,289.8Z"/><path d="M604.67,179.35l-.12-1.22H559.4l-.6,6.09-.36,3.67c-.35,3.57-.71,7.14-1.06,10.71,5.59.88,11.21,1.57,16.9,1.93,11.94.77,22.59-1.14,31.79-6.94Q605.38,186.48,604.67,179.35ZM607,203c-6.22,5.81-13.51,10.16-22.52,11.43-9.31,1.33-19,.85-28.61-.49q-10.39,105.51-20.77,211h33q2.65-26.32,5.29-52.37h17.37c1.6,17.6,3.18,35,4.76,52.33h33.35Q617.92,313.76,607,203ZM575.78,339.59q2.93-52.9,5.82-105.6l.6,0c2,35.12,4,70.23,6,105.62Z"/><path d="M685.09,424.94h-33V213.08H631.61V178.19h74v34.69H685.09Z"/><path d="M1132.83,424.94H1099.9V213h-20.72V178.15h74.15v34.7h-20.5Z"/><path d="M918.23,389.86h23c4.38,0,4.38,0,4.38,4.3q0,13.65,0,27.28v3.41H884.06V178.16h34.17Z"/><path d="M986.64,424.94H953.25V178.18h33.39Z"/><path d="M568.11,152.61h-46c-1.31-4.46-.94-5.41,3-7.81,3.54-2.19,4.67-5.8,5.39-9.55a34.81,34.81,0,0,0,.68-6.75c-.11-13.25-.28-26.5-.6-39.75a16.07,16.07,0,0,0-1.6-5.88c-2.28-5.11-6.88-6.25-11.38-2.89s-7.05,8.47-8.51,13.8a61.74,61.74,0,0,0-2.5,14.26c-.26,8.71,0,17.46.52,26.16.31,5.1,2.3,9.43,7.63,11.84,1.25.57,1.19,4,1.84,6.52H469.86c-.21-3.24-1.23-6.22,3.17-7.93,1.93-.74,3.56-3.46,4.37-5.64a29.29,29.29,0,0,0,1.76-9.46q.3-18.12,0-36.23a31.62,31.62,0,0,0-1.6-9.18c-2.24-7-7.82-8.22-13.2-3.2-4,3.74-6,8.63-7.57,13.71-3.37,10.84-2.25,22-2.15,33.08a38.2,38.2,0,0,0,1.69,11.1c.72,2.27,2.53,5.08,4.55,5.88,4.43,1.75,3.32,4.72,3.07,7.91H417.59c-.12-3.51-.4-6.44,3.84-8.09,3.54-1.39,4.56-5.36,5.14-8.89a72.82,72.82,0,0,0,.89-10.94q.15-14.88,0-29.76c-.1-7.7-1.86-14.64-10.45-18.41a33.13,33.13,0,0,1,3.86-3.75c9.52-6.57,20.09-7.77,31.22-5.84a2.67,2.67,0,0,1,2.48,3.13c-.13,3.2,0,6.41,0,9.57,3.59-3.12,6.82-6.37,10.49-9a29,29,0,0,1,17-5.47c9.79,0,17.6,5.28,21.35,14.47.52,1.29,1,2.61,1.65,4.5.64-1.18,1.08-1.93,1.47-2.71,5.05-10,20.06-17.72,31.05-15.91,10.08,1.65,16.22,7.84,18.73,17.36a70.7,70.7,0,0,1,1.91,15.65c.32,10.34.06,20.7.32,31.05A29.84,29.84,0,0,0,560.2,139c.81,2.18,2.45,4.88,4.38,5.63C568.84,146.29,568.23,149.26,568.11,152.61Z"/><path d="M672.07,68c-.26,3.16-.4,6.13-.83,9.06a2.72,2.72,0,0,1-1.91,1.63c-7.25,1.11-11.51,5.73-13.86,12.17Q647,114,638.6,137.32q-3.42,9.59-6.78,19.18c-3.56,10.18-8.06,19.74-15.18,27.93a47.55,47.55,0,0,1-10.57,9.16c-9.2,5.8-19.85,7.71-31.79,6.94-5.69-.36-11.31-1.05-16.9-1.93-4.41-.69-8.81-1.5-13.19-2.37-7.7-1.52-15.37-3.22-23.08-4.73-3.27-.64-6.56-1.24-9.86-1.78q-6.54-1.08-13.12-1.93c-4.59-.6-9.19-1.12-13.79-1.59a43.74,43.74,0,0,0-16.86,1.38,37.76,37.76,0,0,0-13,6.76l0,0c-2.16,1.73-4.07,3.78-6.33,5.91-4.12-3.4-6.18-8.12-6.71-13.51a22.41,22.41,0,0,1,.79-8.53c2-6.71,7.15-12.27,14.54-15.24a40.67,40.67,0,0,1,10.72-2.66,64.81,64.81,0,0,1,18.28,1c17.29,3.06,33.67,9.07,50,15.35,1.15.44,2.29.88,3.44,1.3h0c2,.76,4,1.48,6,2.18,4.48,1.56,9,3,13.62,4.08a98,98,0,0,0,16.2,2.67c10.57.79,20.14-2.49,27-8.76a31.69,31.69,0,0,0,9.46-16.4,23.85,23.85,0,0,0-1-14.63Q599.39,120,588.11,93a44.17,44.17,0,0,0-2.59-4.84c-3.12-5.39-7.23-9.42-14.2-9.8.28-3.15.42-6.15.91-9.08.11-.62,1.52-1.47,2.33-1.47l6.29,0c11.08,0,22.15,0,33.23-.05h9c1.8,0,2.53.66,2.47,2.47-.08,2.57,0,5.14,0,7.84-2.06.33-3.86.51-5.6.94a9.19,9.19,0,0,0-1.37.44c-2.49,1-3.43,2.81-3.1,5.91a17,17,0,0,0,1,4.39q7,18.09,14.1,36.13c.15.38.4.73.92,1.67.59-1.34,1.05-2.23,1.39-3.16,4-10.94,8-21.86,11.9-32.82,2.53-7.08,2.28-10.2-2.4-12a30.5,30.5,0,0,0-6-1.39V68Z"/><path d="M337.26,193.82c-5.33-29-16.2-55.34-39.34-75C279.38,103,257.41,94.41,233.81,90.08c-45.5-8.37-91-8.44-136.09,2.7C44.33,106,15,141.23,5.51,194.51c-2.19,12.38-2.88,24.9-4.76,37.3q-.06,7.35-.1,14.68c3.16,9.6,2.88,19.76,4.79,29.57,5.66,29,16,55.49,38.9,75.45,18.57,16.16,40.73,24.82,64.55,29.3,44.69,8.41,89.44,8.46,133.82-1.88,54.13-12.63,85.13-47.39,94.57-101.76,2.07-11.95,3.36-24,5-36.05V229.83C340.64,217.83,339.44,205.73,337.26,193.82Zm-22.63,44.06c-31.28,33.51-66.67,60.71-111.85,72.74a124.79,124.79,0,0,1-32.37,3.95c-25.2-.27-49.42-8.2-72.29-20.79C72,279.43,49.48,260.67,29.36,238.85c-1.72-1.87-3.34-3.22-.73-6,30.45-32.49,64.73-59.2,108.38-71.59,35.12-10,68.49-3.93,100.54,12.09,29.31,14.65,54.24,35,76.34,59C315.44,234,317,235.29,314.63,237.88Z"/><path class="cls-1" d="M342.82,257.47c.65,36.5.72,73-6.51,109-10.28,51.24-40.48,83.88-91.23,96.2a309,309,0,0,1-147,.05c-53.13-12.81-82.87-47.89-92.36-101C.1,330.35-.42,298.65.32,266.88c1.07,19.33,2.51,38.61,6.42,57.65,10.15,49.42,38.73,82.22,87.83,95,50.11,13,100.75,13,151.06.72,49.47-12.06,79.31-43.77,90.22-93.43C340.87,304,342.31,280.77,342.82,257.47Z"/><path class="cls-2" d="M.33,204.12a565.42,565.42,0,0,1,2.16-72.23,216.83,216.83,0,0,1,8.44-43.63C24.61,43.8,55.75,18.55,99.85,7.67,132.64-.42,166-1.08,199.43,1a242.65,242.65,0,0,1,48.11,7.81c49,13.24,78.18,45.05,88.58,94.53,6.93,33,6.93,66.36,7,99.77,0,3.49-.23,7-.35,10.49-.54-22.88-1.93-45.66-6.68-68.15-10.32-48.91-38.86-81.26-87.45-94-50.12-13.1-100.77-13.1-151.08-.84-48.88,11.92-78.88,42.9-90,92.19C3,163.07,1.51,183.56.33,204.12Z"/><path class="cls-3" d="M.33,204.12c1.18-20.56,2.7-41.05,7.26-61.26,11.12-49.29,41.12-80.27,90-92.19,50.31-12.26,101-12.26,151.08.84,48.59,12.69,77.13,45,87.45,94,4.75,22.49,6.14,45.27,6.68,68.15q-.26,8.1-.52,16.22c-1.65-12-2.85-24.1-5-36-5.32-29-16.18-55.34-39.33-75-18.55-15.79-40.51-24.36-64.11-28.7-45.5-8.36-91-8.44-136.08,2.71C44.33,106,15,141.23,5.52,194.51c-2.2,12.38-2.9,24.91-4.77,37.3Z"/><path class="cls-4" d="M342.82,257.47c-.51,23.3-1.95,46.51-7,69.35-10.91,49.66-40.75,81.37-90.22,93.43-50.31,12.27-100.95,12.31-151.06-.72-49.1-12.78-77.68-45.58-87.83-95-3.91-19-5.35-38.32-6.42-57.65L.65,246.5c3.16,9.59,2.88,19.75,4.8,29.57,5.65,29,16,55.48,38.89,75.44,18.58,16.15,40.73,24.81,64.55,29.3,44.69,8.41,89.44,8.46,133.82-1.89,54.13-12.62,85.13-47.38,94.57-101.75,2.07-11.95,3.35-24,5-36.05Z"/><path d="M219.84,236.26a48.15,48.15,0,0,1-48.39,48.22c-27-.05-48.37-21.72-48.27-49a48.33,48.33,0,0,1,96.66.78Z"/></g></g></svg>