<svg xmlns="http://www.w3.org/2000/svg" viewBox="0 0 743.72 747.45"><defs><style>.cls-1{fill:#fff;}</style></defs><g id="Layer_2" data-name="Layer 2"><g id="Layer_1-2" data-name="Layer 1"><circle class="cls-1" cx="494.87" cy="334.93" r="54.97"/><circle class="cls-1" cx="291.47" cy="483.36" r="54.97"/><circle class="cls-1" cx="243.82" cy="334.93" r="54.97"/><circle class="cls-1" cx="446.31" cy="483.36" r="54.97"/><circle class="cls-1" cx="369.35" cy="244.22" r="54.97"/><circle class="cls-1" cx="368.72" cy="376.49" r="34.52"/><path class="cls-1" d="M94.49,425l4.22-13,66.13-7.88L116,358.86l4.22-13,77.88,25.34-4.83,14.83L150,372l36.83,33.85-3.22,9.89-49.7,5.7L177.2,435.5l-4.83,14.83Z" transform="translate(-94.49 -124.26)"/><path class="cls-1" d="M204.23,307l-56.34-10.35,10.44-13.29,38.45,7.87L180,255.74l10.44-13.29,23.41,52.27L238.4,314l-9.64,12.27Z" transform="translate(-94.49 -124.26)"/><path class="cls-1" d="M244.33,237.77l31.36-23.19L283.42,225l-31.36,23.19Z" transform="translate(-94.49 -124.26)"/><path class="cls-1" d="M304.07,162.17l14.26-6.34,33.25,74.85L337.32,237Z" transform="translate(-94.49 -124.26)"/><path class="cls-1" d="M376.33,134.51l13.55-1.68,35.18,56.55,20.29-63.44,13.55-1.68L469,205.54l-15.48,1.92-5.61-45.15-15,47.71-10.32,1.28-26.25-42.59,5.61,45.16-15.48,1.92Z" transform="translate(-94.49 -124.26)"/><path class="cls-1" d="M523.54,130.15l25.24,6.27c20.81,5.17,34.56,28,29.23,49.46s-28.17,35.19-49,30l-25.24-6.27Zm9.09,71.24c12.62,3.14,26.83-5.52,30.24-19.28s-5.08-28.05-17.7-31.18l-10.09-2.51-12.54,50.46Z" transform="translate(-94.49 -124.26)"/><path class="cls-1" d="M641.17,170.25l28.49,18.19c12.05,7.7,15.21,22.06,8.57,32.47a16.52,16.52,0,0,1-10.61,7.42,21.24,21.24,0,0,1-6,.48,24.88,24.88,0,0,1,3.1,7.22,21.4,21.4,0,0,1-3,16.76c-6.65,10.41-21.91,13.77-35.06,5.37l-29.58-18.89ZM632.92,246c6.13,3.92,13.13,2.37,16.7-3.21s2-12.59-4.11-16.51l-15.34-9.8-12.59,19.72Zm17.79-30.28c4.94,3.15,11.22,1.76,14-2.62s1.41-10.66-3.52-13.81L647,190.15l-10.5,16.43Z" transform="translate(-94.49 -124.26)"/><path class="cls-1" d="M214,662.47l10.7,11.36L197,722.22,247.4,698l6.25,6.63-27.2,48.86,49.95-24.71,10.71,11.36-77.46,37.23-7.58-8.05,26.22-47-48.53,23.38-7.58-8Z" transform="translate(-94.49 -124.26)"/><path class="cls-1" d="M327.17,759.58,340,765.94l-9,87-14.58-7.22,2.26-17.74-28-13.86L278,826.62l-14.57-7.22Zm-6.77,53.23,4-31.41-22.6,22.17Z" transform="translate(-94.49 -124.26)"/><path class="cls-1" d="M405.12,802.69l-23.74-4L383.86,784l62.87,10.58-2.48,14.74-23.74-4-11.09,66L394,868.72Z" transform="translate(-94.49 -124.26)"/><path class="cls-1" d="M553.88,836.74a38,38,0,0,1-32.22,34.53c-21.22,3.26-42-12-45.52-35.1s11.7-43.88,32.92-47.13c18.52-2.84,34.34,8.54,40.44,23.39l-16.08,2.46c-3.14-6.75-11.17-12.75-22.1-11.08-12.86,2-22.11,14.57-19.75,30s15,24.67,27.83,22.7a21.8,21.8,0,0,0,18.41-17.29Z" transform="translate(-94.49 -124.26)"/><path class="cls-1" d="M574.55,773.29l13.73-7.44,15.49,28.57L634.08,778l-15.49-28.57L632.31,742l39,72-13.72,7.44L641.2,791.13l-30.31,16.43,16.42,30.28-13.73,7.45Z" transform="translate(-94.49 -124.26)"/><path class="cls-1" d="M660.48,718.43l10.69-11.38L720,752.9l26.29-28,10.89,10.23-37,39.36Z" transform="translate(-94.49 -124.26)"/><path class="cls-1" d="M714.83,650.77l7.65-13.61,71.41,40.1-7.64,13.61Z" transform="translate(-94.49 -124.26)"/><path class="cls-1" d="M796.42,604.85c7,1.91,13.28-1.79,15.5-10,2.42-8.91-.81-14.37-5.83-15.74-14.43-3.91-18,38.94-45.46,31.48-12-3.27-19.81-16.84-15.21-33.79,4.27-15.7,17.83-23.47,32.26-19.56l-3.92,14.44c-7-1.9-12.49,1.33-14.53,8.86s1.15,13.12,5.54,14.32c13.68,3.71,17.48-39.07,46.21-31.27,11.29,3.06,19.48,17.56,14.74,35S807.39,624,792.33,619.92Z" transform="translate(-94.49 -124.26)"/><path class="cls-1" d="M771.3,498.58l.78,24.05-14.94.49-2.07-63.72,14.94-.48.78,24.05,66.92-2.17.5,15.6Z" transform="translate(-94.49 -124.26)"/><circle class="cls-1" cx="663.06" cy="206.06" r="15.87"/><circle class="cls-1" cx="35.32" cy="449.6" r="15.87"/></g></g></svg>