<svg xmlns="http://www.w3.org/2000/svg" viewBox="0 0 2145.71 137.35"><defs><style>.cls-1{fill:#fff;}</style></defs><g id="Layer_2" data-name="Layer 2"><g id="Layer_1-2" data-name="Layer 1"><path class="cls-1" d="M138.49,17.6a13.44,13.44,0,0,1,4.07,9.89,16.5,16.5,0,0,1-1.67,7.29,40.12,40.12,0,0,0-5.94-.42q-13.32,0-21.55,8.38a56.56,56.56,0,0,0-12.71,20.88q-4.47,12.5-9.89,34.57l-1.35,5.63H78L60.92,54.88,45,103.92H32.59L12.91,45.61a16.72,16.72,0,0,0-4.63-7.14,12.6,12.6,0,0,0-5.57-2.76H2.08L2.5,31H40.3v4.68a5.37,5.37,0,0,0-3.23,1.41,5.31,5.31,0,0,0-1,3.7,27.12,27.12,0,0,0,.83,6.25l7.29,27.59L58.83,31H72.89L86.53,69.87q6.77-27.18,17.18-41.76t23.85-14.57Q134.43,13.54,138.49,17.6Z" transform="translate(-2.08 0)"/><path class="cls-1" d="M172.23,93.2a33.14,33.14,0,0,1-12.49,9.73,38.19,38.19,0,0,1-16.14,3.49,32.42,32.42,0,0,1-16.35-4.27,32,32,0,0,1-11.87-11.61,31.74,31.74,0,0,1,0-32.18,32,32,0,0,1,11.87-11.61,32.52,32.52,0,0,1,16.35-4.27,41.82,41.82,0,0,1,14.73,2.4,22.89,22.89,0,0,1,9.89,6.61,14.39,14.39,0,0,1,3.49,9.43q0,11.34-14.58,16a46.24,46.24,0,0,1-13.64,2,59,59,0,0,1-10.1-.94,16.23,16.23,0,0,0,2.86,9,19.73,19.73,0,0,0,7.14,6.4,18.93,18.93,0,0,0,9.06,2.34,22.09,22.09,0,0,0,8.48-1.77,18.63,18.63,0,0,0,7.14-5ZM138.65,56.91A34,34,0,0,0,134,70.81a36,36,0,0,0,7,.73q7,0,10.94-2.92a13.56,13.56,0,0,0,5.2-7.18,8.15,8.15,0,0,0,.42-2.61,7.47,7.47,0,0,0-2.76-6,8.43,8.43,0,0,0-6.3-2A12.6,12.6,0,0,0,138.65,56.91Z" transform="translate(-2.08 0)"/><path class="cls-1" d="M179.73,95.75q1.88-3,1.87-10.57V43.94a22.16,22.16,0,0,0-1.09-7.86,9.26,9.26,0,0,0-2.19-3.65,42.81,42.81,0,0,0-4-2.65,16.88,16.88,0,0,1,8.39-5.47A36.24,36.24,0,0,1,194,22.49a19,19,0,0,1,7.71,1.25V85.18q0,7.6,1.87,10.57a7.12,7.12,0,0,0,4.9,3.49l.31,4.68H174.52l.31-4.68A7.12,7.12,0,0,0,179.73,95.75Z" transform="translate(-2.08 0)"/><path class="cls-1" d="M227.11,102.2a31.66,31.66,0,0,1-11.87-11.5,31.65,31.65,0,0,1,0-32.13A32,32,0,0,1,227.11,47a34.33,34.33,0,0,1,32.38-.42A20.42,20.42,0,0,1,269,57.17,11.88,11.88,0,0,1,269.7,61,6.89,6.89,0,0,1,267,66.75a9.72,9.72,0,0,1-6.19,2.08,9,9,0,0,1-5.89-2A7.1,7.1,0,0,1,252.52,61a17.08,17.08,0,0,1,.41-2.92,12.49,12.49,0,0,0,.32-2.6c0-3.26-1.64-4.75-4.9-4.48a13,13,0,0,0-8,3.86,23.4,23.4,0,0,0-5.52,8.69,30.94,30.94,0,0,0-2,11,24,24,0,0,0,2.44,11,18,18,0,0,0,6.87,7.5,19.37,19.37,0,0,0,10.16,2.65,22.09,22.09,0,0,0,8.48-1.77,18.63,18.63,0,0,0,7.14-5l4.16,4.27a33.14,33.14,0,0,1-12.49,9.73,38.19,38.19,0,0,1-16.14,3.49A32.82,32.82,0,0,1,227.11,102.2Z" transform="translate(-2.08 0)"/><path class="cls-1" d="M286.83,90.9a24.64,24.64,0,0,1-9.74-9.32,25,25,0,0,1-3.44-12.86A24.72,24.72,0,0,1,277,56a24.15,24.15,0,0,1,9.73-9.17,31.1,31.1,0,0,1,14.79-3.38,30.32,30.32,0,0,1,14.53,3.38,24.4,24.4,0,0,1,13.17,21.92,25,25,0,0,1-3.44,12.86,24.62,24.62,0,0,1-9.73,9.32,29.78,29.78,0,0,1-14.53,3.44A30.19,30.19,0,0,1,286.83,90.9ZM294,99a48.25,48.25,0,0,0,7.76.68,61.41,61.41,0,0,0,8-.57,33.38,33.38,0,0,0,7.34-1.72,3.79,3.79,0,0,1,3,1.2,4.1,4.1,0,0,1,1.1,2.86,4.56,4.56,0,0,1-.68,2.45,4.49,4.49,0,0,1-2.13,1.72q-5.83,2.49-16.56,2.5-10.11,0-16.25-2.71a4.69,4.69,0,0,1-2.18-1.77,4.35,4.35,0,0,1-.73-2.4,4,4,0,0,1,1.14-2.86,3.88,3.88,0,0,1,2.92-1.2A39.14,39.14,0,0,0,294,99Zm12.08-14.83a17.69,17.69,0,0,0,3.23-6.51,32.09,32.09,0,0,0,1.2-9,31.65,31.65,0,0,0-1.2-8.9,18.2,18.2,0,0,0-3.23-6.56,5.22,5.22,0,0,0-8.85,0A18.2,18.2,0,0,0,294,59.72a31.65,31.65,0,0,0-1.2,8.9,32.09,32.09,0,0,0,1.2,9,17.69,17.69,0,0,0,3.23,6.51,5.29,5.29,0,0,0,8.85,0Z" transform="translate(-2.08 0)"/><path class="cls-1" d="M409.54,95.8q1.88-2.91,1.88-10.52V64.87q0-7.4-1.77-10.25c-1.18-1.91-2.54-2.87-4.06-2.87-2.09,0-4,1.09-5.78,3.28a24.53,24.53,0,0,0-4.22,8.59A38.63,38.63,0,0,0,394,74.56V85.18q0,7.6,1.87,10.57a7.12,7.12,0,0,0,4.9,3.49v4.68H368.52V99.24a7.12,7.12,0,0,0,4.89-3.49q1.88-3,1.88-10.57V64.77c0-4.93-.6-8.35-1.77-10.26s-2.54-2.86-4.07-2.86q-3.12,0-5.78,3.28a24.44,24.44,0,0,0-4.21,8.59,38.56,38.56,0,0,0-1.56,10.93V85.18q0,7.6,1.87,10.57a7.12,7.12,0,0,0,4.89,3.49v4.68H332.07l.31-4.68a7.12,7.12,0,0,0,4.9-3.49q1.88-3,1.87-10.57V64.77a22.16,22.16,0,0,0-1.09-7.86,9.19,9.19,0,0,0-2.19-3.65,40.85,40.85,0,0,0-4-2.65,16.83,16.83,0,0,1,8.07-5.47,32.31,32.31,0,0,1,10.68-1.82,17.57,17.57,0,0,1,7.29,1.25v9.58q2.07-4.59,7.86-8A21.89,21.89,0,0,1,377,42.69a16.29,16.29,0,0,1,10.1,3.39c3,2.25,5,5.85,6.15,10.77a12.39,12.39,0,0,1,3.69-6.61,25.45,25.45,0,0,1,7.66-5.36,20.2,20.2,0,0,1,8.53-2.08,16.07,16.07,0,0,1,12.08,5.25q5,5.27,5,16.93v20.3q0,7.6,1.88,10.52a7.17,7.17,0,0,0,4.89,3.44l.31,4.68H404.65V99.24A7.17,7.17,0,0,0,409.54,95.8Z" transform="translate(-2.08 0)"/><path class="cls-1" d="M516.64,34.21a39.56,39.56,0,0,1,5.89,21.39,45.94,45.94,0,0,1-1.36,11.15,49.56,49.56,0,0,1-9.11,20.46,47.68,47.68,0,0,1-17,14.06,48.86,48.86,0,0,1-22,5,38.48,38.48,0,0,1-16.66-3.65A29.54,29.54,0,0,1,444,91.79q-4.68-7.23-4.68-17.34a30.84,30.84,0,0,1,4.37-16.09,32,32,0,0,1,11.87-11.61,32.55,32.55,0,0,1,16.35-4.27,43.1,43.1,0,0,1,13.69,2.14A25.66,25.66,0,0,1,496,50.76a13,13,0,0,1,4,9.43,14.92,14.92,0,0,1-4.27,10.15A22.78,22.78,0,0,1,485.46,77a46.36,46.36,0,0,1-13.65,2,59.44,59.44,0,0,1-10.2-.94,18.69,18.69,0,0,0,2.29,9.43,15.64,15.64,0,0,0,6.25,6.14,18.16,18.16,0,0,0,8.75,2.13,31.23,31.23,0,0,0,11.55-2.39,36.86,36.86,0,0,0,11.2-7.08,31.38,31.38,0,0,0,7.86-11.14,26.77,26.77,0,0,0,2.39-10.94,25.33,25.33,0,0,0-4.84-14.89,29.74,29.74,0,0,0-13.69-10.41,8.15,8.15,0,0,1-4.17-3.44,9.81,9.81,0,0,1-1.45-5.2,10.33,10.33,0,0,1,.83-4.07A8.87,8.87,0,0,1,491.81,22a8.47,8.47,0,0,1,4.89-1.51,10.61,10.61,0,0,1,3.85.73A30.13,30.13,0,0,1,516.64,34.21ZM467,56.91a34.15,34.15,0,0,0-4.63,13.9,36,36,0,0,0,7,.73q7,0,10.93-2.92a13.57,13.57,0,0,0,5.21-7.18,8.43,8.43,0,0,0,.41-2.61,7.47,7.47,0,0,0-2.76-6,8.43,8.43,0,0,0-6.3-2A12.63,12.63,0,0,0,467,56.91Z" transform="translate(-2.08 0)"/><path class="cls-1" d="M638,18a9.7,9.7,0,0,1,3.43,7.6,10.18,10.18,0,0,1-3.69,7.87,12.74,12.74,0,0,1-8.7,3.28,42.51,42.51,0,0,1-7.6-.73,59.58,59.58,0,0,0-9.89-.84,29.79,29.79,0,0,0-10,1.62,35.42,35.42,0,0,0-8,3.9q-3.37,2.3-7.75,5.73l-4.06,3a22,22,0,0,1-3.54,2.19V88.51a11.08,11.08,0,0,0,1.09,5.57,3.24,3.24,0,0,0,2.86,1.82,5.05,5.05,0,0,0,2.5-.78,9.52,9.52,0,0,0,2.5-2.13l4.17,4.27a26.12,26.12,0,0,1-8.44,6.66,23.38,23.38,0,0,1-9.68,1.87,17.94,17.94,0,0,1-11.35-3.48q-4.49-3.5-4.48-10V54.77a41.86,41.86,0,0,1-7.29-1.46v-5.2a17.75,17.75,0,0,0,3.85.52,12.67,12.67,0,0,0,7.5-2.35,24.79,24.79,0,0,0,5.68-5.51q2.34-3.18,5.25-8.07a38.46,38.46,0,0,1,3.44-5.52h2.4V44.46q3-2.39,9-7.39c.63-.56,2.3-1.94,5-4.17s5.21-4.16,7.5-5.83a71.41,71.41,0,0,1,6.35-4.16,80.58,80.58,0,0,1,12-5.94,29,29,0,0,1,10.26-2Q634.57,15,638,18Z" transform="translate(-2.08 0)"/><path class="cls-1" d="M606,100.85a28.28,28.28,0,0,1-10.83-11.14,32.15,32.15,0,0,1-3.8-15.57,32.15,32.15,0,0,1,3.8-15.57A28,28,0,0,1,606,47.48a35,35,0,0,1,32.74,0,28,28,0,0,1,10.78,11.09,32.15,32.15,0,0,1,3.8,15.57,32.15,32.15,0,0,1-3.8,15.57,28.36,28.36,0,0,1-10.78,11.14,34.66,34.66,0,0,1-32.74,0Zm21.39-6.25a25.81,25.81,0,0,0,3.7-8.64,47.23,47.23,0,0,0,1.41-11.82,46.65,46.65,0,0,0-1.41-11.77,26.37,26.37,0,0,0-3.7-8.64c-1.52-2.15-3.19-3.23-5-3.23s-3.48,1.08-5,3.23a25.76,25.76,0,0,0-3.65,8.64,48.62,48.62,0,0,0-1.35,11.77A49.22,49.22,0,0,0,613.74,86a25.23,25.23,0,0,0,3.65,8.64q2.28,3.18,5,3.18C624.19,97.78,625.86,96.72,627.38,94.6Z" transform="translate(-2.08 0)"/><path class="cls-1" d="M758.07,95.8q1.88-2.91,1.87-10.52V64.87q0-7.4-1.77-10.25t-4.06-2.87q-3.12,0-5.78,3.28a24.71,24.71,0,0,0-4.22,8.59,38.63,38.63,0,0,0-1.56,10.94V85.18q0,7.6,1.88,10.57a7.12,7.12,0,0,0,4.89,3.49v4.68H717V99.24a7.12,7.12,0,0,0,4.89-3.49q1.88-3,1.88-10.57V64.77q0-7.39-1.77-10.26c-1.18-1.91-2.54-2.86-4.06-2.86-2.09,0-4,1.09-5.78,3.28A24.45,24.45,0,0,0,708,63.52a38.56,38.56,0,0,0-1.56,10.93V85.18q0,7.6,1.87,10.57a7.12,7.12,0,0,0,4.9,3.49v4.68h-32.6l.32-4.68a7.12,7.12,0,0,0,4.89-3.49q1.88-3,1.88-10.57V64.77a22.12,22.12,0,0,0-1.1-7.86,9.31,9.31,0,0,0-2.18-3.65,42.16,42.16,0,0,0-4-2.65,16.73,16.73,0,0,1,8.07-5.47,32.21,32.21,0,0,1,10.67-1.82,17.57,17.57,0,0,1,7.29,1.25v9.58q2.08-4.59,7.86-8a21.89,21.89,0,0,1,11.19-3.44,16.34,16.34,0,0,1,10.11,3.39c3,2.25,5,5.85,6.14,10.77a12.48,12.48,0,0,1,3.7-6.61,25.28,25.28,0,0,1,7.65-5.36,20.21,20.21,0,0,1,8.54-2.08,16.07,16.07,0,0,1,12.08,5.25q5,5.27,5,16.93v20.3q0,7.6,1.87,10.52a7.17,7.17,0,0,0,4.89,3.44l.32,4.68h-32.6V99.24A7.17,7.17,0,0,0,758.07,95.8Z" transform="translate(-2.08 0)"/><path class="cls-1" d="M858.14,44.57l-.73,7.49a12.67,12.67,0,0,0-7,2.61c-1.77,1.45-3.35,4.13-4.74,8l-14.89,41.24a58.59,58.59,0,0,1-7.81,17.55A38.48,38.48,0,0,1,811,133.13a27.69,27.69,0,0,1-14.53,4.11,126,126,0,0,1-18.33-1.14q-7.59-1.15-17.39-3.54-9-2.09-15.93-3.34a161.85,161.85,0,0,0-16.35-2c-.83-.07-2-.11-3.64-.11q-8.33,0-13.85,2.87a23.28,23.28,0,0,0-8.64,7.34,13.24,13.24,0,0,1-3.7-4.9,15.07,15.07,0,0,1-1.3-6.24,16.15,16.15,0,0,1,2.34-8.34,16.81,16.81,0,0,1,7.34-6.4,28.13,28.13,0,0,1,12.4-2.45,52.9,52.9,0,0,1,10.1,1,150.66,150.66,0,0,1,15.36,4q6.81,2.19,16.19,5.73,10.83,4.16,18,6.14a59.5,59.5,0,0,0,15.83,2,19.12,19.12,0,0,0,9.79-3,25.27,25.27,0,0,0,8.28-8,19.25,19.25,0,0,0,3.28-10.73,18.8,18.8,0,0,0-1.88-8.33L799.62,62.16q-2.93-5.71-5.31-7.75A11.55,11.55,0,0,0,787.85,52l.73-7.39h37.07V52a13.72,13.72,0,0,0-5.42.94A3.15,3.15,0,0,0,818.57,56a12.92,12.92,0,0,0,.62,3.54l10.62,27.18L839.5,60a11.25,11.25,0,0,0,.73-3.54,3.56,3.56,0,0,0-1.77-3.39,11.18,11.18,0,0,0-5.31-1L833,44.57Z" transform="translate(-2.08 0)"/><path class="cls-1" d="M978.93,44.57l-.73,7.49a12.7,12.7,0,0,0-7,2.61c-1.77,1.45-3.35,4.13-4.73,8l-14.9,41.24H938L925.2,71.54l-11.66,32.38H898.65L882.19,62.16q-2.91-5.82-5.26-7.81a11.44,11.44,0,0,0-6.3-2.39l.73-7.39h36.35L907.6,52a9,9,0,0,0-4.16,1.67,4.46,4.46,0,0,0-1.88,3.85,7.82,7.82,0,0,0,.31,1.87L912.6,86.74l8.95-24.58A54.11,54.11,0,0,0,918.07,56a8.81,8.81,0,0,0-3-2.87A13,13,0,0,0,910.73,52V44.57h38.63V52A16.26,16.26,0,0,0,943,53.1a3.71,3.71,0,0,0-2.19,3.65,10.51,10.51,0,0,0,.52,2.81l10,25.41,8.95-24.89a8.52,8.52,0,0,0,.52-2.91q0-5.1-8.43-5.11l-.11-7.49Z" transform="translate(-2.08 0)"/><path class="cls-1" d="M991.06,90.9a24.62,24.62,0,0,1-9.73-9.32A25.75,25.75,0,0,1,981.27,56,24.25,24.25,0,0,1,991,46.8a31,31,0,0,1,14.79-3.38,30.28,30.28,0,0,1,14.52,3.38,24.39,24.39,0,0,1,13.18,21.92,25,25,0,0,1-3.44,12.86,24.64,24.64,0,0,1-9.74,9.32,29.74,29.74,0,0,1-14.52,3.44A30.2,30.2,0,0,1,991.06,90.9ZM998.25,99a48.25,48.25,0,0,0,7.76.68,61.14,61.14,0,0,0,8-.57,33.24,33.24,0,0,0,7.34-1.72,3.82,3.82,0,0,1,3,1.2,4.09,4.09,0,0,1,1.09,2.86,4.29,4.29,0,0,1-2.81,4.17q-5.84,2.49-16.55,2.5-10.11,0-16.25-2.71a4.77,4.77,0,0,1-2.19-1.77,4.42,4.42,0,0,1-.72-2.4A4,4,0,0,1,988,98.35a3.86,3.86,0,0,1,2.92-1.2A39.14,39.14,0,0,0,998.25,99Zm12.08-14.83a17.69,17.69,0,0,0,3.23-6.51,32.46,32.46,0,0,0,1.19-9,32,32,0,0,0-1.19-8.9,18.2,18.2,0,0,0-3.23-6.56,5.22,5.22,0,0,0-8.85,0,18,18,0,0,0-3.23,6.56,31.65,31.65,0,0,0-1.2,8.9,32.09,32.09,0,0,0,1.2,9,17.54,17.54,0,0,0,3.23,6.51,5.29,5.29,0,0,0,8.85,0Z" transform="translate(-2.08 0)"/><path class="cls-1" d="M1093.74,46.28a12.86,12.86,0,0,1,3,8.6,15.68,15.68,0,0,1-2.76,9.11,8.26,8.26,0,0,1-7,4q-3.75,0-7.71-3.34a8.92,8.92,0,0,0-5.73-2.5q-4.68,0-7.5,6.83a42.4,42.4,0,0,0-2.81,16.19q0,7.6,1.88,10.57a7.12,7.12,0,0,0,4.89,3.49l.31,4.68H1036.1l.31-4.68q6.77-1,6.77-13V67.89q0-13.32-6.56-17.28a16.76,16.76,0,0,1,8.17-5.47,33.54,33.54,0,0,1,10.89-1.82,18.11,18.11,0,0,1,7.49,1.25V63.31a49.67,49.67,0,0,1,10-14.53q6-6,11.77-6T1093.74,46.28Z" transform="translate(-2.08 0)"/><path class="cls-1" d="M1203.07,9.58a30.64,30.64,0,0,1,11,6.51q4.32,4.11,4.32,9a9.21,9.21,0,0,1-2.55,6.82,8.66,8.66,0,0,1-6.4,2.56,10.65,10.65,0,0,1-7-2.5,8.13,8.13,0,0,1-3-6.56q0-6.46-1.93-9.22t-7.44-2.76A47.22,47.22,0,0,0,1178.76,15q-6.26,1.56-17.08,5.52a28,28,0,0,0-3,1.15q-9,3.33-16.76,6T1125,32.59a27.89,27.89,0,0,1,.1,2.81V85.18q0,7.6,1.88,10.57a7.1,7.1,0,0,0,4.89,3.49l.31,4.68H1098l.32-4.68a7.12,7.12,0,0,0,4.89-3.49q1.88-3,1.87-10.57V35.82c-1.18.07-3,.1-5.31.1a51.44,51.44,0,0,1-14.52-2.13,26,26,0,0,1-10.68-6,13.15,13.15,0,0,1-4.16-9.47,15.23,15.23,0,0,1,3.12-9.9,19.8,19.8,0,0,1,9-6.3A36.84,36.84,0,0,1,1095.35,0q12.18,0,19.26,7.34A36.39,36.39,0,0,1,1124,25.41a257.63,257.63,0,0,0,32.69-10.62,130.28,130.28,0,0,1,18-5.84,66.56,66.56,0,0,1,15-1.77A39.53,39.53,0,0,1,1203.07,9.58ZM1088.89,26.45q6.36,2.3,16.14,2,0-9.8-2.55-16t-10-6.14a9.27,9.27,0,0,0-7.13,3.33,11.75,11.75,0,0,0-2.76,7.91Q1082.54,24.17,1088.89,26.45Z" transform="translate(-2.08 0)"/><path class="cls-1" d="M1166.68,102.31a17.59,17.59,0,0,1-9.27,2.65,21.16,21.16,0,0,1-11.61-3.28,22.93,22.93,0,0,1-8.28-9.79,37.19,37.19,0,0,1-3.23-15.77,36.35,36.35,0,0,1,3.65-16.56,31,31,0,0,1,10.46-12.29,26.49,26.49,0,0,1,15.26-4.58,31.87,31.87,0,0,1,9.48,1.46v-.21a22.12,22.12,0,0,0-1.1-7.86,9.26,9.26,0,0,0-2.19-3.65,42.28,42.28,0,0,0-4-2.65,16.8,16.8,0,0,1,8.38-5.47,36.25,36.25,0,0,1,11.3-1.82,18.93,18.93,0,0,1,7.7,1.25V85.18q0,7.6,1.88,10.57a7.12,7.12,0,0,0,4.89,3.49h.1l.21,4.68h-27.17V95.49A16.75,16.75,0,0,1,1166.68,102.31Zm.42-9.53a13.76,13.76,0,0,0,4.11-5.88,31.1,31.1,0,0,0,1.93-10.78V57.79a10.18,10.18,0,0,0-1.25-4.84c-.84-1.56-2.5-2.34-5-2.34q-5.84,0-9.43,5.83t-3.59,19.68q0,9.06,2.34,13.74c1.57,3.13,3.66,4.69,6.3,4.69A7.82,7.82,0,0,0,1167.1,92.78Z" transform="translate(-2.08 0)"/><path class="cls-1" d="M1215.62,105.79a8.39,8.39,0,0,0-.31-2.08,8.35,8.35,0,0,1-2.19.32,6.63,6.63,0,0,1-4.89-2,7,7,0,0,1-2-5.21,8.62,8.62,0,0,1,2.7-6.66,9.07,9.07,0,0,1,6.36-2.5,8.94,8.94,0,0,1,6.77,2.86,10.56,10.56,0,0,1,2.7,7.55,18.14,18.14,0,0,1-1.72,7.18,25.67,25.67,0,0,1-4.47,7,13.66,13.66,0,0,1-5.47,4l-1.46-1.46Q1215.62,109.65,1215.62,105.79Z" transform="translate(-2.08 0)"/><path class="cls-1" d="M1319,44.57l-.73,7.49a12.73,12.73,0,0,0-7,2.61c-1.77,1.45-3.35,4.13-4.73,8l-14.89,41.24q-4.48,13.44-11,20.25T1263.1,131q-5.2,0-8-2.66a8.57,8.57,0,0,1-2.76-6.4,8.38,8.38,0,0,1,2-5.58,6.71,6.71,0,0,1,5.41-2.34,12.67,12.67,0,0,1,4.38.94,22.88,22.88,0,0,0,7.7,1.77,7.69,7.69,0,0,0,5.47-1.82,6.51,6.51,0,0,0,1.92-5,12.81,12.81,0,0,0-1-5l-17.7-42.9q-2.91-5.73-5.31-7.71a11.9,11.9,0,0,0-6.46-2.39l.73-7.39h37.07V52a13.66,13.66,0,0,0-5.41.94,3.15,3.15,0,0,0-1.67,3.12,12.61,12.61,0,0,0,.63,3.54l10.62,27.18L1300.38,60a11,11,0,0,0,.73-3.54,3.56,3.56,0,0,0-1.77-3.39,11.18,11.18,0,0,0-5.31-1l-.1-7.49Z" transform="translate(-2.08 0)"/><path class="cls-1" d="M1331.05,100.85a28.28,28.28,0,0,1-10.83-11.14,32.27,32.27,0,0,1-3.8-15.57,32.27,32.27,0,0,1,3.8-15.57,28,28,0,0,1,10.83-11.09,35.05,35.05,0,0,1,32.75,0,28.17,28.17,0,0,1,10.78,11.09,32.27,32.27,0,0,1,3.8,15.57,32.27,32.27,0,0,1-3.8,15.57,28.49,28.49,0,0,1-10.78,11.14,34.68,34.68,0,0,1-32.75,0Zm21.4-6.25a25.81,25.81,0,0,0,3.7-8.64,47.7,47.7,0,0,0,1.4-11.82,47.12,47.12,0,0,0-1.4-11.77,26.37,26.37,0,0,0-3.7-8.64q-2.29-3.23-5-3.23c-1.81,0-3.47,1.08-5,3.23a25.56,25.56,0,0,0-3.64,8.64,48.12,48.12,0,0,0-1.36,11.77A48.71,48.71,0,0,0,1338.81,86a25,25,0,0,0,3.64,8.64c1.53,2.12,3.19,3.18,5,3.18S1350.92,96.72,1352.45,94.6Z" transform="translate(-2.08 0)"/><path class="cls-1" d="M1415.29,102.36a21.88,21.88,0,0,1-11.19,3.43,19.07,19.07,0,0,1-8.7-2.13,16.69,16.69,0,0,1-7-7.13q-2.76-5-2.75-12.91V64.77a22.12,22.12,0,0,0-1.1-7.86,9.31,9.31,0,0,0-2.18-3.65,42.16,42.16,0,0,0-4-2.65,16.73,16.73,0,0,1,8.38-5.47,36,36,0,0,1,11.3-1.82,18.76,18.76,0,0,1,7.7,1.25V83.72q0,7.4,1.77,10.26c1.18,1.91,2.54,2.86,4.06,2.86,2.09,0,4-1.09,5.78-3.28a24.53,24.53,0,0,0,4.22-8.59A38.61,38.61,0,0,0,1423.15,74V64.77a22.16,22.16,0,0,0-1.09-7.86,9.19,9.19,0,0,0-2.19-3.65,40.85,40.85,0,0,0-4-2.65,16.81,16.81,0,0,1,8.39-5.47,36,36,0,0,1,11.29-1.82,18.81,18.81,0,0,1,7.71,1.25V85.18q0,7.6,1.87,10.57a7.12,7.12,0,0,0,4.9,3.49h.1l.21,4.68h-27.18V94.34Q1421.07,98.93,1415.29,102.36Z" transform="translate(-2.08 0)"/><path class="cls-1" d="M1550.5,88.93q10,0,16.46,4.21a13.2,13.2,0,0,1,6.45,11.61q0,9.9-8,15.21t-21.09,5.31a122.39,122.39,0,0,1-18.17-1.15q-7.56-1.14-17.23-3.54-8.76-2.08-15.83-3.33t-16.77-2c-.83-.07-2-.1-3.64-.1q-8.34,0-13.85,2.86a23.46,23.46,0,0,0-8.64,7.34,13.29,13.29,0,0,1-3.7-4.89,15.15,15.15,0,0,1-1.3-6.25,16.11,16.11,0,0,1,2.34-8.33,16.75,16.75,0,0,1,7.34-6.4,28.05,28.05,0,0,1,12.39-2.45,52.82,52.82,0,0,1,10.1,1,116.87,116.87,0,0,1,15.94,4.27q7.08,2.51,16.24,6.35a172.65,172.65,0,0,0,17.7,6.56,54.76,54.76,0,0,0,15.52,2.08q5.92,0,8.69-2.23a7.11,7.11,0,0,0,2.76-5.78,5.11,5.11,0,0,0-1-3.55,4.07,4.07,0,0,0-3.07-1,38.52,38.52,0,0,0-7.6,1.25c.28-.07-1.56.32-5.52,1.15a43,43,0,0,1-9,.94,27.67,27.67,0,0,1-12.76-2.66q-5.16-2.66-5.16-7.86a16.38,16.38,0,0,1,3.34-9.95c2.22-3,5.76-5.11,10.62-6.3a20.91,20.91,0,0,1-8-7.18,18,18,0,0,1-2.76-9.79,17.58,17.58,0,0,1,3.49-10.62,23.31,23.31,0,0,1,9.89-7.55,37.52,37.52,0,0,1,15-2.76,40.53,40.53,0,0,1,10.41,1.25,4.58,4.58,0,0,1-1.25-3.54,9.77,9.77,0,0,1,.62-3.28,11.48,11.48,0,0,1,1.67-3.07A12.54,12.54,0,0,1,1563,30.3a12.36,12.36,0,0,1,7.81,2.5,7.53,7.53,0,0,1,3.23,6.14,7.39,7.39,0,0,1-2.09,5.31,6.77,6.77,0,0,1-5.1,2.19A9,9,0,0,1,1562,45a4.24,4.24,0,0,1-2.24-3.7,5.76,5.76,0,0,1,.21-1.15,1.65,1.65,0,0,0-1.46-.62,3.33,3.33,0,0,0-3.12,2,4.14,4.14,0,0,0-.63,2.18,17.26,17.26,0,0,0,.31,1.88,23.65,23.65,0,0,1,11,7.49,17.93,17.93,0,0,1,.47,21.87,23.17,23.17,0,0,1-9.89,7.55,37.5,37.5,0,0,1-14.94,2.76c-1.11,0-2.71-.07-4.79-.21a22.5,22.5,0,0,0-9.64,1.31,15.54,15.54,0,0,0-6,3.85c-1.32,1.49-1.81,2.65-1.46,3.49S1521,95,1522.28,95s4.38-.73,8.75-2.19l2.81-.94A50.28,50.28,0,0,1,1550.5,88.93Zm-93-34.68a7.26,7.26,0,0,0-1.87-3.07,27.3,27.3,0,0,0-3.18-2,13.7,13.7,0,0,1,6.87-4.53,29.4,29.4,0,0,1,9.27-1.51,14.87,14.87,0,0,1,6.35,1V52a16.21,16.21,0,0,1,6.51-6.51,17.65,17.65,0,0,1,9.11-2.86,15.5,15.5,0,0,1,7.19,1.77,13.72,13.72,0,0,1,5.67,5.83q2.25,4.06,2.24,10.62V77.47q0,6.25,1.15,8.7a4.58,4.58,0,0,0,3,2.86h.1l.31,3.85h-26.55V89a5.85,5.85,0,0,0,4-2.86q1.56-2.44,1.56-8.7V60.71c0-4-.49-6.82-1.46-8.39s-2.08-2.34-3.33-2.34c-1.74,0-3.33.9-4.79,2.71a19.9,19.9,0,0,0-3.44,7,32.34,32.34,0,0,0-1.25,9v8.75q0,6.25,1.57,8.7a5.85,5.85,0,0,0,4,2.86v3.85h-27.8l.21-3.85a5.75,5.75,0,0,0,4-2.86c1-1.63,1.51-4.53,1.51-8.7V60.71A18.59,18.59,0,0,0,1457.46,54.25Zm80.08-3.85a15.82,15.82,0,0,0-3.07,5.88,27,27,0,0,0-1.15,8.07,26.43,26.43,0,0,0,1.15,8,15.81,15.81,0,0,0,3.07,5.83,5.58,5.58,0,0,0,4.22,2.19A5.75,5.75,0,0,0,1546,78.2a16.2,16.2,0,0,0,3.17-5.83,25.51,25.51,0,0,0,1.2-8,26.06,26.06,0,0,0-1.2-8.07A16.2,16.2,0,0,0,1546,50.4a5.75,5.75,0,0,0-4.27-2.19A5.58,5.58,0,0,0,1537.54,50.4Z" transform="translate(-2.08 0)"/><path class="cls-1" d="M1664.21,60.65q-3.43,5-11.14,8t-19.78,3.07V85.18q0,7.6,1.87,10.57a7.12,7.12,0,0,0,4.9,3.49l.31,4.68h-35l.31-4.68q6.76-1,6.77-13V71q-12.29.3-15.72,5.1a7.89,7.89,0,0,0-1.67,4.89,10.72,10.72,0,0,0,1.25,4.79,10.81,10.81,0,0,1-2.65,4.22,7.22,7.22,0,0,1-5.47,2.13,7.72,7.72,0,0,1-6.3-2.7,10.15,10.15,0,0,1-2.24-6.67,13.44,13.44,0,0,1,2.71-7.81,21.87,21.87,0,0,1,7.81-6.56,34.25,34.25,0,0,1,11.19-3.59,67.78,67.78,0,0,1,11.09-.78V43.32q0-7-6.77-7.61l.42-4.68h27.18q19.57,0,27,5.1a15.9,15.9,0,0,1,7.39,13.75A18.47,18.47,0,0,1,1664.21,60.65Zm-30.92,4.43q6.35,0,9.94-4a14.62,14.62,0,0,0,3.59-10.15q0-11.56-7.28-11.46a5.8,5.8,0,0,0-4.33,2.09c-1.28,1.39-1.92,3.5-1.92,6.35Z" transform="translate(-2.08 0)"/><path class="cls-1" d="M1741.17,97.26a26.12,26.12,0,0,1-8.44,6.66,23.38,23.38,0,0,1-9.68,1.87,19,19,0,0,1-10.26-2.7,11.25,11.25,0,0,1-5.26-7.81l-.21.41q-2.08,4.38-7.75,7.24a27,27,0,0,1-12.34,2.86q-10.32,0-15.94-4.89a16,16,0,0,1-5.72-12.39A14.45,14.45,0,0,1,1670,77.68a30.2,30.2,0,0,1,12.6-7.08,55.32,55.32,0,0,1,10.89-2q6.09-.57,13.69-.57V61.85q0-5.2-2.81-8.12a8.86,8.86,0,0,0-6.56-2.92,7.21,7.21,0,0,0-5,1.88,6.63,6.63,0,0,0-2.08,5.2,5.16,5.16,0,0,1-2.87,4.79,13.15,13.15,0,0,1-6.92,1.78,12.11,12.11,0,0,1-6.46-1.67,5.15,5.15,0,0,1-2.71-4.58,10.92,10.92,0,0,1,3.6-7.86,24.2,24.2,0,0,1,9.79-5.63,44.19,44.19,0,0,1,13.79-2q9.59,0,16.14,3.7a23.3,23.3,0,0,1,9.74,10.1A32.23,32.23,0,0,1,1728.05,71V88.51a11.08,11.08,0,0,0,1.09,5.57A3.24,3.24,0,0,0,1732,95.9a5.05,5.05,0,0,0,2.5-.78A9.52,9.52,0,0,0,1737,93Zm-37.75-7q3.48-4.32,3.8-14.11V73.83a43.65,43.65,0,0,0-15,2.29q-6.24,2.3-6.24,9.79a8.59,8.59,0,0,0,2.34,6.19q2.34,2.45,7,2.45T1703.42,90.23Z" transform="translate(-2.08 0)"/><path class="cls-1" d="M1772.51,102.31a17.59,17.59,0,0,1-9.27,2.65,21.16,21.16,0,0,1-11.61-3.28,23,23,0,0,1-8.28-9.79,37.19,37.19,0,0,1-3.23-15.77,36.35,36.35,0,0,1,3.65-16.56,31,31,0,0,1,10.46-12.29,26.49,26.49,0,0,1,15.26-4.58,31.87,31.87,0,0,1,9.48,1.46v-.21a22.12,22.12,0,0,0-1.1-7.86,9.39,9.39,0,0,0-2.18-3.65,44.25,44.25,0,0,0-4-2.65,16.8,16.8,0,0,1,8.38-5.47,36.25,36.25,0,0,1,11.3-1.82,18.93,18.93,0,0,1,7.7,1.25V85.18q0,7.6,1.88,10.57a7.12,7.12,0,0,0,4.89,3.49h.11l.2,4.68H1779V95.49A16.75,16.75,0,0,1,1772.51,102.31Zm.42-9.53A13.76,13.76,0,0,0,1777,86.9,31.1,31.1,0,0,0,1779,76.12V57.79a10.18,10.18,0,0,0-1.25-4.84c-.84-1.56-2.5-2.34-5-2.34q-5.84,0-9.43,5.83t-3.59,19.68q0,9.06,2.34,13.74c1.57,3.13,3.66,4.69,6.3,4.69A7.82,7.82,0,0,0,1772.93,92.78Z" transform="translate(-2.08 0)"/><path class="cls-1" d="M1884.55,97.26a26.1,26.1,0,0,1-8.43,6.66,23.43,23.43,0,0,1-9.69,1.87,19,19,0,0,1-10.25-2.7,11.22,11.22,0,0,1-5.26-7.81l-.21.41q-2.09,4.38-7.76,7.24a27,27,0,0,1-12.34,2.86q-10.3,0-15.93-4.89A16,16,0,0,1,1809,88.51a14.46,14.46,0,0,1,4.48-10.83A30.14,30.14,0,0,1,1826,70.6a55.21,55.21,0,0,1,10.88-2q6.09-.57,13.7-.57V61.85q0-5.2-2.82-8.12a8.85,8.85,0,0,0-6.56-2.92,7.19,7.19,0,0,0-5,1.88,6.63,6.63,0,0,0-2.09,5.2,5.13,5.13,0,0,1-2.86,4.79,13.18,13.18,0,0,1-6.92,1.78,12.08,12.08,0,0,1-6.46-1.67,5.13,5.13,0,0,1-2.71-4.58,10.94,10.94,0,0,1,3.59-7.86,24.33,24.33,0,0,1,9.79-5.63,44.25,44.25,0,0,1,13.8-2q9.58,0,16.14,3.7a23.35,23.35,0,0,1,9.74,10.1A32.36,32.36,0,0,1,1871.43,71V88.51a11.07,11.07,0,0,0,1.1,5.57,3.23,3.23,0,0,0,2.86,1.82,5.08,5.08,0,0,0,2.5-.78,9.68,9.68,0,0,0,2.5-2.13Zm-37.74-7q3.48-4.32,3.8-14.11V73.83a43.62,43.62,0,0,0-15,2.29q-6.24,2.3-6.25,9.79a8.55,8.55,0,0,0,2.35,6.19q2.34,2.45,7,2.45T1846.81,90.23Z" transform="translate(-2.08 0)"/><path class="cls-1" d="M1982.44,44.57l-.73,7.49a12.67,12.67,0,0,0-7,2.61c-1.77,1.45-3.35,4.13-4.74,8l-14.89,41.24h-13.54L1928.7,71.54,1917,103.92h-14.89L1885.7,62.16q-2.92-5.82-5.26-7.81a11.44,11.44,0,0,0-6.3-2.39l.73-7.39h36.34l-.1,7.39a9.06,9.06,0,0,0-4.17,1.67,4.45,4.45,0,0,0-1.87,3.85,7.34,7.34,0,0,0,.31,1.87l10.72,27.39,9-24.58a53.87,53.87,0,0,0-3.49-6.19,8.72,8.72,0,0,0-3-2.87,13,13,0,0,0-4.32-1.14V44.57h38.63V52a16.34,16.34,0,0,0-6.35,1.14,3.71,3.71,0,0,0-2.19,3.65,10.93,10.93,0,0,0,.52,2.81l10,25.41,9-24.89a8.76,8.76,0,0,0,.52-2.91q0-5.1-8.44-5.11l-.1-7.49Z" transform="translate(-2.08 0)"/><path class="cls-1" d="M2091.88,95.75q1.88-3,1.87-10.57V64.77q0-7.39-1.77-10.26t-4.06-2.86q-3.12,0-5.78,3.28a24.62,24.62,0,0,0-4.22,8.59,38.56,38.56,0,0,0-1.56,10.93q0,17.91-3.17,28.48t-9.79,15.31q-6.62,4.74-17.55,4.74-10.51,0-17.08-7.24t-7.6-20.15l-.1.1q-2.08,4.38-7.76,7.24a27,27,0,0,1-12.34,2.86q-10.31,0-15.93-4.89a16,16,0,0,1-5.73-12.39,14.43,14.43,0,0,1,4.48-10.83,30.08,30.08,0,0,1,12.6-7.08,55.21,55.21,0,0,1,10.88-2Q2013.36,68,2021,68V61.85c0-3.47-.93-6.18-2.81-8.12a8.85,8.85,0,0,0-6.56-2.92,7.23,7.23,0,0,0-5,1.88,6.66,6.66,0,0,0-2.08,5.2,5.13,5.13,0,0,1-2.86,4.79,13.19,13.19,0,0,1-6.93,1.78,12,12,0,0,1-6.45-1.67,5.13,5.13,0,0,1-2.71-4.58,10.94,10.94,0,0,1,3.59-7.86,24.33,24.33,0,0,1,9.79-5.63,44.25,44.25,0,0,1,13.8-2q9.57,0,16.14,3.7a23.27,23.27,0,0,1,9.73,10.1A32.23,32.23,0,0,1,2041.79,71v31a24.68,24.68,0,0,0,1.2,8.12,14.1,14.1,0,0,0,3,5.26,5.06,5.06,0,0,0,3.54,1.82,4.87,4.87,0,0,0,3.48-1.82,13.61,13.61,0,0,0,2.82-5.26,26.87,26.87,0,0,0,1.09-8.12V62.16q-.42-5-2.19-7.18a11.81,11.81,0,0,0-3.54-3.12c-1.18-.63-1.94-1-2.29-1.25a22.63,22.63,0,0,1,9.32-5.52,35.8,35.8,0,0,1,10.88-1.77,17.5,17.5,0,0,1,7.29,1.25v9.58q2.08-4.59,7.86-8a22,22,0,0,1,11.2-3.44,19,19,0,0,1,8.69,2.14,16.69,16.69,0,0,1,7,7.13q2.76,5,2.76,12.91V85.18q0,7.6,1.87,10.57a7.12,7.12,0,0,0,4.9,3.49l.31,4.68H2087V99.24A7.12,7.12,0,0,0,2091.88,95.75Zm-74.72-5.52q3.49-4.32,3.8-14.11V73.83a43.56,43.56,0,0,0-15,2.29q-6.26,2.3-6.25,9.79a8.59,8.59,0,0,0,2.34,6.19q2.36,2.45,7,2.45T2017.16,90.23Z" transform="translate(-2.08 0)"/><path class="cls-1" d="M2127.18,31.86c0-3.95,1-6.82,3-8.59a11.35,11.35,0,0,1,14.58,0c2,1.77,3,4.64,3,8.59a21.86,21.86,0,0,1-.21,3.44l-5,43h-10.21l-5-43A21.86,21.86,0,0,1,2127.18,31.86Zm4.06,56.34a9.37,9.37,0,0,1,6.87-2.92,8.29,8.29,0,0,1,6.15,2.55,8.55,8.55,0,0,1,2.49,6.2,10,10,0,0,1-2.86,7.24,9.18,9.18,0,0,1-6.82,3,8.47,8.47,0,0,1-6.25-2.5,8.36,8.36,0,0,1-2.5-6.14A10,10,0,0,1,2131.24,88.2Z" transform="translate(-2.08 0)"/></g></g></svg>