<svg xmlns="http://www.w3.org/2000/svg" viewBox="0 0 1216.35 137.35"><defs><style>.cls-1{fill:#fff;}</style></defs><g id="Layer_2" data-name="Layer 2"><g id="Layer_1-2" data-name="Layer 1"><path class="cls-1" d="M138.49,17.6a13.44,13.44,0,0,1,4.07,9.89,16.5,16.5,0,0,1-1.67,7.29,40.12,40.12,0,0,0-5.94-.42q-13.32,0-21.55,8.38a56.56,56.56,0,0,0-12.71,20.88q-4.47,12.5-9.89,34.57l-1.35,5.63H78L60.92,54.88,45,103.92H32.59L12.91,45.61a16.72,16.72,0,0,0-4.63-7.14,12.6,12.6,0,0,0-5.57-2.76H2.08L2.5,31H40.3v4.68a5.37,5.37,0,0,0-3.23,1.41,5.31,5.31,0,0,0-1,3.7,27.12,27.12,0,0,0,.83,6.25l7.29,27.59L58.83,31H72.89L86.53,69.87q6.77-27.18,17.18-41.76t23.85-14.57Q134.43,13.54,138.49,17.6Z" transform="translate(-2.08 0)"/><path class="cls-1" d="M172.23,93.2a33.14,33.14,0,0,1-12.49,9.73,38.19,38.19,0,0,1-16.14,3.49,32.42,32.42,0,0,1-16.35-4.27,32,32,0,0,1-11.87-11.61,31.74,31.74,0,0,1,0-32.18,32,32,0,0,1,11.87-11.61,32.52,32.52,0,0,1,16.35-4.27,41.82,41.82,0,0,1,14.73,2.4,22.89,22.89,0,0,1,9.89,6.61,14.39,14.39,0,0,1,3.49,9.43q0,11.34-14.58,16a46.24,46.24,0,0,1-13.64,2,59,59,0,0,1-10.1-.94,16.23,16.23,0,0,0,2.86,9,19.73,19.73,0,0,0,7.14,6.4,18.93,18.93,0,0,0,9.06,2.34,22.09,22.09,0,0,0,8.48-1.77,18.63,18.63,0,0,0,7.14-5ZM138.65,56.91A34,34,0,0,0,134,70.81a36,36,0,0,0,7,.73q7,0,10.94-2.92a13.56,13.56,0,0,0,5.2-7.18,8.15,8.15,0,0,0,.42-2.61,7.47,7.47,0,0,0-2.76-6,8.43,8.43,0,0,0-6.3-2A12.6,12.6,0,0,0,138.65,56.91Z" transform="translate(-2.08 0)"/><path class="cls-1" d="M179.73,95.75q1.88-3,1.87-10.57V43.94a22.16,22.16,0,0,0-1.09-7.86,9.26,9.26,0,0,0-2.19-3.65,42.81,42.81,0,0,0-4-2.65,16.88,16.88,0,0,1,8.39-5.47A36.24,36.24,0,0,1,194,22.49a19,19,0,0,1,7.71,1.25V85.18q0,7.6,1.87,10.57a7.12,7.12,0,0,0,4.9,3.49l.31,4.68H174.52l.31-4.68A7.12,7.12,0,0,0,179.73,95.75Z" transform="translate(-2.08 0)"/><path class="cls-1" d="M227.11,102.2a31.66,31.66,0,0,1-11.87-11.5,31.65,31.65,0,0,1,0-32.13A32,32,0,0,1,227.11,47a34.33,34.33,0,0,1,32.38-.42A20.42,20.42,0,0,1,269,57.17,11.88,11.88,0,0,1,269.7,61,6.89,6.89,0,0,1,267,66.75a9.72,9.72,0,0,1-6.19,2.08,9,9,0,0,1-5.89-2A7.1,7.1,0,0,1,252.52,61a17.08,17.08,0,0,1,.41-2.92,12.49,12.49,0,0,0,.32-2.6c0-3.26-1.64-4.75-4.9-4.48a13,13,0,0,0-8,3.86,23.4,23.4,0,0,0-5.52,8.69,30.94,30.94,0,0,0-2,11,24,24,0,0,0,2.44,11,18,18,0,0,0,6.87,7.5,19.37,19.37,0,0,0,10.16,2.65,22.09,22.09,0,0,0,8.48-1.77,18.63,18.63,0,0,0,7.14-5l4.16,4.27a33.14,33.14,0,0,1-12.49,9.73,38.19,38.19,0,0,1-16.14,3.49A32.82,32.82,0,0,1,227.11,102.2Z" transform="translate(-2.08 0)"/><path class="cls-1" d="M286.83,90.9a24.64,24.64,0,0,1-9.74-9.32,25,25,0,0,1-3.44-12.86A24.72,24.72,0,0,1,277,56a24.15,24.15,0,0,1,9.73-9.17,31.1,31.1,0,0,1,14.79-3.38,30.32,30.32,0,0,1,14.53,3.38,24.4,24.4,0,0,1,13.17,21.92,25,25,0,0,1-3.44,12.86,24.62,24.62,0,0,1-9.73,9.32,29.78,29.78,0,0,1-14.53,3.44A30.19,30.19,0,0,1,286.83,90.9ZM294,99a48.25,48.25,0,0,0,7.76.68,61.41,61.41,0,0,0,8-.57,33.38,33.38,0,0,0,7.34-1.72,3.79,3.79,0,0,1,3,1.2,4.1,4.1,0,0,1,1.1,2.86,4.56,4.56,0,0,1-.68,2.45,4.49,4.49,0,0,1-2.13,1.72q-5.83,2.49-16.56,2.5-10.11,0-16.25-2.71a4.69,4.69,0,0,1-2.18-1.77,4.35,4.35,0,0,1-.73-2.4,4,4,0,0,1,1.14-2.86,3.88,3.88,0,0,1,2.92-1.2A39.14,39.14,0,0,0,294,99Zm12.08-14.83a17.69,17.69,0,0,0,3.23-6.51,32.09,32.09,0,0,0,1.2-9,31.65,31.65,0,0,0-1.2-8.9,18.2,18.2,0,0,0-3.23-6.56,5.22,5.22,0,0,0-8.85,0A18.2,18.2,0,0,0,294,59.72a31.65,31.65,0,0,0-1.2,8.9,32.09,32.09,0,0,0,1.2,9,17.69,17.69,0,0,0,3.23,6.51,5.29,5.29,0,0,0,8.85,0Z" transform="translate(-2.08 0)"/><path class="cls-1" d="M409.54,95.8q1.88-2.91,1.88-10.52V64.87q0-7.4-1.77-10.25c-1.18-1.91-2.54-2.87-4.06-2.87-2.09,0-4,1.09-5.78,3.28a24.53,24.53,0,0,0-4.22,8.59A38.63,38.63,0,0,0,394,74.56V85.18q0,7.6,1.87,10.57a7.12,7.12,0,0,0,4.9,3.49v4.68H368.52V99.24a7.12,7.12,0,0,0,4.89-3.49q1.88-3,1.88-10.57V64.77c0-4.93-.6-8.35-1.77-10.26s-2.54-2.86-4.07-2.86q-3.12,0-5.78,3.28a24.44,24.44,0,0,0-4.21,8.59,38.56,38.56,0,0,0-1.56,10.93V85.18q0,7.6,1.87,10.57a7.12,7.12,0,0,0,4.89,3.49v4.68H332.07l.31-4.68a7.12,7.12,0,0,0,4.9-3.49q1.88-3,1.87-10.57V64.77a22.16,22.16,0,0,0-1.09-7.86,9.19,9.19,0,0,0-2.19-3.65,40.85,40.85,0,0,0-4-2.65,16.83,16.83,0,0,1,8.07-5.47,32.31,32.31,0,0,1,10.68-1.82,17.57,17.57,0,0,1,7.29,1.25v9.58q2.07-4.59,7.86-8A21.89,21.89,0,0,1,377,42.69a16.29,16.29,0,0,1,10.1,3.39c3,2.25,5,5.85,6.15,10.77a12.39,12.39,0,0,1,3.69-6.61,25.45,25.45,0,0,1,7.66-5.36,20.2,20.2,0,0,1,8.53-2.08,16.07,16.07,0,0,1,12.08,5.25q5,5.27,5,16.93v20.3q0,7.6,1.88,10.52a7.17,7.17,0,0,0,4.89,3.44l.31,4.68H404.65V99.24A7.17,7.17,0,0,0,409.54,95.8Z" transform="translate(-2.08 0)"/><path class="cls-1" d="M516.64,34.21a39.56,39.56,0,0,1,5.89,21.39,45.94,45.94,0,0,1-1.36,11.15,49.56,49.56,0,0,1-9.11,20.46,47.68,47.68,0,0,1-17,14.06,48.86,48.86,0,0,1-22,5,38.48,38.48,0,0,1-16.66-3.65A29.54,29.54,0,0,1,444,91.79q-4.68-7.23-4.68-17.34a30.84,30.84,0,0,1,4.37-16.09,32,32,0,0,1,11.87-11.61,32.55,32.55,0,0,1,16.35-4.27,43.1,43.1,0,0,1,13.69,2.14A25.66,25.66,0,0,1,496,50.76a13,13,0,0,1,4,9.43,14.92,14.92,0,0,1-4.27,10.15A22.78,22.78,0,0,1,485.46,77a46.36,46.36,0,0,1-13.65,2,59.44,59.44,0,0,1-10.2-.94,18.69,18.69,0,0,0,2.29,9.43,15.64,15.64,0,0,0,6.25,6.14,18.16,18.16,0,0,0,8.75,2.13,31.23,31.23,0,0,0,11.55-2.39,36.86,36.86,0,0,0,11.2-7.08,31.38,31.38,0,0,0,7.86-11.14,26.77,26.77,0,0,0,2.39-10.94,25.33,25.33,0,0,0-4.84-14.89,29.74,29.74,0,0,0-13.69-10.41,8.15,8.15,0,0,1-4.17-3.44,9.81,9.81,0,0,1-1.45-5.2,10.33,10.33,0,0,1,.83-4.07A8.87,8.87,0,0,1,491.81,22a8.47,8.47,0,0,1,4.89-1.51,10.61,10.61,0,0,1,3.85.73A30.13,30.13,0,0,1,516.64,34.21ZM467,56.91a34.15,34.15,0,0,0-4.63,13.9,36,36,0,0,0,7,.73q7,0,10.93-2.92a13.57,13.57,0,0,0,5.21-7.18,8.43,8.43,0,0,0,.41-2.61,7.47,7.47,0,0,0-2.76-6,8.43,8.43,0,0,0-6.3-2A12.63,12.63,0,0,0,467,56.91Z" transform="translate(-2.08 0)"/><path class="cls-1" d="M638,18a9.7,9.7,0,0,1,3.43,7.6,10.18,10.18,0,0,1-3.69,7.87,12.74,12.74,0,0,1-8.7,3.28,42.51,42.51,0,0,1-7.6-.73,59.58,59.58,0,0,0-9.89-.84,29.79,29.79,0,0,0-10,1.62,35.42,35.42,0,0,0-8,3.9q-3.37,2.3-7.75,5.73l-4.06,3a22,22,0,0,1-3.54,2.19V88.51a11.08,11.08,0,0,0,1.09,5.57,3.24,3.24,0,0,0,2.86,1.82,5.05,5.05,0,0,0,2.5-.78,9.52,9.52,0,0,0,2.5-2.13l4.17,4.27a26.12,26.12,0,0,1-8.44,6.66,23.38,23.38,0,0,1-9.68,1.87,17.94,17.94,0,0,1-11.35-3.48q-4.49-3.5-4.48-10V54.77a41.86,41.86,0,0,1-7.29-1.46v-5.2a17.75,17.75,0,0,0,3.85.52,12.67,12.67,0,0,0,7.5-2.35,24.79,24.79,0,0,0,5.68-5.51q2.34-3.18,5.25-8.07a38.46,38.46,0,0,1,3.44-5.52h2.4V44.46q3-2.39,9-7.39c.63-.56,2.3-1.94,5-4.17s5.21-4.16,7.5-5.83a71.41,71.41,0,0,1,6.35-4.16,80.58,80.58,0,0,1,12-5.94,29,29,0,0,1,10.26-2Q634.57,15,638,18Z" transform="translate(-2.08 0)"/><path class="cls-1" d="M606,100.85a28.28,28.28,0,0,1-10.83-11.14,32.15,32.15,0,0,1-3.8-15.57,32.15,32.15,0,0,1,3.8-15.57A28,28,0,0,1,606,47.48a35,35,0,0,1,32.74,0,28,28,0,0,1,10.78,11.09,32.15,32.15,0,0,1,3.8,15.57,32.15,32.15,0,0,1-3.8,15.57,28.36,28.36,0,0,1-10.78,11.14,34.66,34.66,0,0,1-32.74,0Zm21.39-6.25a25.81,25.81,0,0,0,3.7-8.64,47.23,47.23,0,0,0,1.41-11.82,46.65,46.65,0,0,0-1.41-11.77,26.37,26.37,0,0,0-3.7-8.64c-1.52-2.15-3.19-3.23-5-3.23s-3.48,1.08-5,3.23a25.76,25.76,0,0,0-3.65,8.64,48.62,48.62,0,0,0-1.35,11.77A49.22,49.22,0,0,0,613.74,86a25.23,25.23,0,0,0,3.65,8.64q2.28,3.18,5,3.18C624.19,97.78,625.86,96.72,627.38,94.6Z" transform="translate(-2.08 0)"/><path class="cls-1" d="M758.07,95.8q1.88-2.91,1.87-10.52V64.87q0-7.4-1.77-10.25t-4.06-2.87q-3.12,0-5.78,3.28a24.71,24.71,0,0,0-4.22,8.59,38.63,38.63,0,0,0-1.56,10.94V85.18q0,7.6,1.88,10.57a7.12,7.12,0,0,0,4.89,3.49v4.68H717V99.24a7.12,7.12,0,0,0,4.89-3.49q1.88-3,1.88-10.57V64.77q0-7.39-1.77-10.26c-1.18-1.91-2.54-2.86-4.06-2.86-2.09,0-4,1.09-5.78,3.28A24.45,24.45,0,0,0,708,63.52a38.56,38.56,0,0,0-1.56,10.93V85.18q0,7.6,1.87,10.57a7.12,7.12,0,0,0,4.9,3.49v4.68h-32.6l.32-4.68a7.12,7.12,0,0,0,4.89-3.49q1.88-3,1.88-10.57V64.77a22.12,22.12,0,0,0-1.1-7.86,9.31,9.31,0,0,0-2.18-3.65,42.16,42.16,0,0,0-4-2.65,16.73,16.73,0,0,1,8.07-5.47,32.21,32.21,0,0,1,10.67-1.82,17.57,17.57,0,0,1,7.29,1.25v9.58q2.08-4.59,7.86-8a21.89,21.89,0,0,1,11.19-3.44,16.34,16.34,0,0,1,10.11,3.39c3,2.25,5,5.85,6.14,10.77a12.48,12.48,0,0,1,3.7-6.61,25.28,25.28,0,0,1,7.65-5.36,20.21,20.21,0,0,1,8.54-2.08,16.07,16.07,0,0,1,12.08,5.25q5,5.27,5,16.93v20.3q0,7.6,1.87,10.52a7.17,7.17,0,0,0,4.89,3.44l.32,4.68h-32.6V99.24A7.17,7.17,0,0,0,758.07,95.8Z" transform="translate(-2.08 0)"/><path class="cls-1" d="M858.14,44.57l-.73,7.49a12.67,12.67,0,0,0-7,2.61c-1.77,1.45-3.35,4.13-4.74,8l-14.89,41.24a58.59,58.59,0,0,1-7.81,17.55A38.48,38.48,0,0,1,811,133.13a27.69,27.69,0,0,1-14.53,4.11,126,126,0,0,1-18.33-1.14q-7.59-1.15-17.39-3.54-9-2.09-15.93-3.34a161.85,161.85,0,0,0-16.35-2c-.83-.07-2-.11-3.64-.11q-8.33,0-13.85,2.87a23.28,23.28,0,0,0-8.64,7.34,13.24,13.24,0,0,1-3.7-4.9,15.07,15.07,0,0,1-1.3-6.24,16.15,16.15,0,0,1,2.34-8.34,16.81,16.81,0,0,1,7.34-6.4,28.13,28.13,0,0,1,12.4-2.45,52.9,52.9,0,0,1,10.1,1,150.66,150.66,0,0,1,15.36,4q6.81,2.19,16.19,5.73,10.83,4.16,18,6.14a59.5,59.5,0,0,0,15.83,2,19.12,19.12,0,0,0,9.79-3,25.27,25.27,0,0,0,8.28-8,19.25,19.25,0,0,0,3.28-10.73,18.8,18.8,0,0,0-1.88-8.33L799.62,62.16q-2.93-5.71-5.31-7.75A11.55,11.55,0,0,0,787.85,52l.73-7.39h37.07V52a13.72,13.72,0,0,0-5.42.94A3.15,3.15,0,0,0,818.57,56a12.92,12.92,0,0,0,.62,3.54l10.62,27.18L839.5,60a11.25,11.25,0,0,0,.73-3.54,3.56,3.56,0,0,0-1.77-3.39,11.18,11.18,0,0,0-5.31-1L833,44.57Z" transform="translate(-2.08 0)"/><path class="cls-1" d="M978.93,44.57l-.73,7.49a12.7,12.7,0,0,0-7,2.61c-1.77,1.45-3.35,4.13-4.73,8l-14.9,41.24H938L925.2,71.54l-11.66,32.38H898.65L882.19,62.16q-2.91-5.82-5.26-7.81a11.44,11.44,0,0,0-6.3-2.39l.73-7.39h36.35L907.6,52a9,9,0,0,0-4.16,1.67,4.46,4.46,0,0,0-1.88,3.85,7.82,7.82,0,0,0,.31,1.87L912.6,86.74l8.95-24.58A54.11,54.11,0,0,0,918.07,56a8.81,8.81,0,0,0-3-2.87A13,13,0,0,0,910.73,52V44.57h38.63V52A16.26,16.26,0,0,0,943,53.1a3.71,3.71,0,0,0-2.19,3.65,10.51,10.51,0,0,0,.52,2.81l10,25.41,8.95-24.89a8.52,8.52,0,0,0,.52-2.91q0-5.1-8.43-5.11l-.11-7.49Z" transform="translate(-2.08 0)"/><path class="cls-1" d="M991.06,90.9a24.62,24.62,0,0,1-9.73-9.32A25.75,25.75,0,0,1,981.27,56,24.25,24.25,0,0,1,991,46.8a31,31,0,0,1,14.79-3.38,30.28,30.28,0,0,1,14.52,3.38,24.39,24.39,0,0,1,13.18,21.92,25,25,0,0,1-3.44,12.86,24.64,24.64,0,0,1-9.74,9.32,29.74,29.74,0,0,1-14.52,3.44A30.2,30.2,0,0,1,991.06,90.9ZM998.25,99a48.25,48.25,0,0,0,7.76.68,61.14,61.14,0,0,0,8-.57,33.24,33.24,0,0,0,7.34-1.72,3.82,3.82,0,0,1,3,1.2,4.09,4.09,0,0,1,1.09,2.86,4.29,4.29,0,0,1-2.81,4.17q-5.84,2.49-16.55,2.5-10.11,0-16.25-2.71a4.77,4.77,0,0,1-2.19-1.77,4.42,4.42,0,0,1-.72-2.4A4,4,0,0,1,988,98.35a3.86,3.86,0,0,1,2.92-1.2A39.14,39.14,0,0,0,998.25,99Zm12.08-14.83a17.69,17.69,0,0,0,3.23-6.51,32.46,32.46,0,0,0,1.19-9,32,32,0,0,0-1.19-8.9,18.2,18.2,0,0,0-3.23-6.56,5.22,5.22,0,0,0-8.85,0,18,18,0,0,0-3.23,6.56,31.65,31.65,0,0,0-1.2,8.9,32.09,32.09,0,0,0,1.2,9,17.54,17.54,0,0,0,3.23,6.51,5.29,5.29,0,0,0,8.85,0Z" transform="translate(-2.08 0)"/><path class="cls-1" d="M1093.74,46.28a12.86,12.86,0,0,1,3,8.6,15.68,15.68,0,0,1-2.76,9.11,8.26,8.26,0,0,1-7,4q-3.75,0-7.71-3.34a8.92,8.92,0,0,0-5.73-2.5q-4.68,0-7.5,6.83a42.4,42.4,0,0,0-2.81,16.19q0,7.6,1.88,10.57a7.12,7.12,0,0,0,4.89,3.49l.31,4.68H1036.1l.31-4.68q6.77-1,6.77-13V67.89q0-13.32-6.56-17.28a16.76,16.76,0,0,1,8.17-5.47,33.54,33.54,0,0,1,10.89-1.82,18.11,18.11,0,0,1,7.49,1.25V63.31a49.67,49.67,0,0,1,10-14.53q6-6,11.77-6T1093.74,46.28Z" transform="translate(-2.08 0)"/><path class="cls-1" d="M1203.07,9.58a30.64,30.64,0,0,1,11,6.51q4.32,4.11,4.32,9a9.21,9.21,0,0,1-2.55,6.82,8.66,8.66,0,0,1-6.4,2.56,10.65,10.65,0,0,1-7-2.5,8.13,8.13,0,0,1-3-6.56q0-6.46-1.93-9.22t-7.44-2.76A47.22,47.22,0,0,0,1178.76,15q-6.26,1.56-17.08,5.52a28,28,0,0,0-3,1.15q-9,3.33-16.76,6T1125,32.59a27.89,27.89,0,0,1,.1,2.81V85.18q0,7.6,1.88,10.57a7.1,7.1,0,0,0,4.89,3.49l.31,4.68H1098l.32-4.68a7.12,7.12,0,0,0,4.89-3.49q1.88-3,1.87-10.57V35.82c-1.18.07-3,.1-5.31.1a51.44,51.44,0,0,1-14.52-2.13,26,26,0,0,1-10.68-6,13.15,13.15,0,0,1-4.16-9.47,15.23,15.23,0,0,1,3.12-9.9,19.8,19.8,0,0,1,9-6.3A36.84,36.84,0,0,1,1095.35,0q12.18,0,19.26,7.34A36.39,36.39,0,0,1,1124,25.41a257.63,257.63,0,0,0,32.69-10.62,130.28,130.28,0,0,1,18-5.84,66.56,66.56,0,0,1,15-1.77A39.53,39.53,0,0,1,1203.07,9.58ZM1088.89,26.45q6.36,2.3,16.14,2,0-9.8-2.55-16t-10-6.14a9.27,9.27,0,0,0-7.13,3.33,11.75,11.75,0,0,0-2.76,7.91Q1082.54,24.17,1088.89,26.45Z" transform="translate(-2.08 0)"/><path class="cls-1" d="M1166.68,102.31a17.59,17.59,0,0,1-9.27,2.65,21.16,21.16,0,0,1-11.61-3.28,22.93,22.93,0,0,1-8.28-9.79,37.19,37.19,0,0,1-3.23-15.77,36.35,36.35,0,0,1,3.65-16.56,31,31,0,0,1,10.46-12.29,26.49,26.49,0,0,1,15.26-4.58,31.87,31.87,0,0,1,9.48,1.46v-.21a22.12,22.12,0,0,0-1.1-7.86,9.26,9.26,0,0,0-2.19-3.65,42.28,42.28,0,0,0-4-2.65,16.8,16.8,0,0,1,8.38-5.47,36.25,36.25,0,0,1,11.3-1.82,18.93,18.93,0,0,1,7.7,1.25V85.18q0,7.6,1.88,10.57a7.12,7.12,0,0,0,4.89,3.49h.1l.21,4.68h-27.17V95.49A16.75,16.75,0,0,1,1166.68,102.31Zm.42-9.53a13.76,13.76,0,0,0,4.11-5.88,31.1,31.1,0,0,0,1.93-10.78V57.79a10.18,10.18,0,0,0-1.25-4.84c-.84-1.56-2.5-2.34-5-2.34q-5.84,0-9.43,5.83t-3.59,19.68q0,9.06,2.34,13.74c1.57,3.13,3.66,4.69,6.3,4.69A7.82,7.82,0,0,0,1167.1,92.78Z" transform="translate(-2.08 0)"/></g></g></svg>